<?xml version="1.0" encoding="UTF-8"?>
<svg version="1.1" xmlns="http://www.w3.org/2000/svg" width="1024" height="1024">
<path d="M0 0 C337.92 0 675.84 0 1024 0 C1024 337.92 1024 675.84 1024 1024 C686.08 1024 348.16 1024 0 1024 C0 686.08 0 348.16 0 0 Z " fill="#CBE7ED" transform="translate(0,0)"/>
<path d="M0 0 C337.92 0 675.84 0 1024 0 C1024 337.92 1024 675.84 1024 1024 C686.08 1024 348.16 1024 0 1024 C0 686.08 0 348.16 0 0 Z M301.20410156 60.96777344 C299.06832056 61.96800406 296.92308827 62.94406143 294.7734375 63.9140625 C267.54478116 76.29799716 241.86949959 92.01060108 218 110 C217.26136719 110.55461914 216.52273437 111.10923828 215.76171875 111.68066406 C198.94519171 124.33662548 182.0419896 137.36691323 167.44140625 152.5859375 C165.41501513 154.58963304 163.35585552 156.43604489 161.1953125 158.2890625 C156.96627285 161.95813731 153.12324553 165.90285387 149.3125 170 C148.62333496 170.73766602 147.93416992 171.47533203 147.22412109 172.23535156 C136.88630345 183.36178816 127.02970225 194.78197505 118 207 C117.51595703 207.65274902 117.03191406 208.30549805 116.53320312 208.97802734 C86.56066611 249.54300257 60.06974602 293.96045304 44 342 C43.6174707 343.13663086 43.23494141 344.27326172 42.84082031 345.44433594 C29.50662732 385.21908832 20.83668535 425.21744403 17 467 C16.91411621 467.88284668 16.82823242 468.76569336 16.73974609 469.67529297 C16.04833413 477.2101965 15.82562034 484.68569937 15.796875 492.25 C15.78981537 493.48963501 15.78275574 494.72927002 15.77548218 496.00646973 C15.75791255 500.0043553 15.75078839 504.0020838 15.75 508 C15.74970543 508.68246796 15.74941086 509.36493591 15.74910736 510.06808472 C15.74756724 532.15796887 16.09997604 554.07416713 19 576 C19.09710266 576.73512817 19.19420532 577.47025635 19.29425049 578.22766113 C23.43122948 609.04458616 29.77358664 639.60097425 40 669 C40.53681396 670.5787793 40.53681396 670.5787793 41.08447266 672.18945312 C56.65678503 717.92447127 77.86986504 762.08597298 106.59716797 801.08935547 C108.1918097 803.26124307 109.76952224 805.44499684 111.34765625 807.62890625 C118.21257127 817.08758941 125.28995454 826.21736229 133 835 C133.63292969 835.7321875 134.26585937 836.464375 134.91796875 837.21875 C138.79592534 841.69126744 142.7631053 846.08340025 146.73046875 850.4765625 C149.53589393 853.59584764 152.31009207 856.7420493 155.078125 859.89453125 C158.99879384 864.18973553 163.20258173 868.14877979 167.5 872.0625 C170.77682392 875.04794826 174.04824577 878.03764483 177.28515625 881.06640625 C211.40616312 912.95947618 251.00415313 938.67794205 292.94921875 958.99902344 C295.18309462 960.08936761 297.40349285 961.20499918 299.625 962.3203125 C314.35199556 969.62162835 329.56296649 975.41012462 345 981 C346.26142822 981.4638208 346.26142822 981.4638208 347.54833984 981.93701172 C362.67102233 987.46498103 378.38460828 991.15305947 394 995 C395.03801758 995.25700684 396.07603516 995.51401367 397.14550781 995.77880859 C411.64304699 999.33270894 426.21024542 1001.99325169 441 1004 C441.64785461 1004.09085876 442.29570923 1004.18171753 442.9631958 1004.27532959 C486.2209907 1010.33258948 530.63797189 1009.9571943 574 1005 C574.98436035 1004.89316895 575.9687207 1004.78633789 576.98291016 1004.67626953 C583.0314567 1004.00051007 589.01036057 1003.07594319 595 1002 C595.94555756 1001.83017609 595.94555756 1001.83017609 596.91021729 1001.65692139 C683.4213092 986.04484972 764.44928333 950.93013657 832 894 C832.52239258 893.56252441 833.04478516 893.12504883 833.58300781 892.67431641 C850.37745476 878.5875456 867.25512615 863.64557383 881.4140625 846.86328125 C883.30191407 844.64528815 885.27702792 842.51757845 887.25 840.375 C892.35201839 834.7186027 897.01422314 828.75679009 901.66210938 822.72753906 C902.88327351 821.15072202 904.12050546 819.58638219 905.359375 818.0234375 C917.95101276 802.00924049 929.36910777 785.12425014 939.56005859 767.49023438 C941.03489991 764.93964411 942.52664515 762.39943803 944.01953125 759.859375 C955.09253877 740.89609522 964.59405434 721.45300033 972.7644043 701.06958008 C973.6460815 698.87923678 974.54240739 696.69476651 975.44848633 694.5144043 C979.21912129 685.38724699 982.27070844 676.1556186 985.0625 666.6875 C985.50072888 665.21501415 985.93920819 663.74260282 986.37792969 662.27026367 C987.22513427 659.4208611 988.06720242 656.57001849 988.90478516 653.71777344 C989.77059794 650.77871924 990.65096157 647.84520928 991.54296875 644.9140625 C1015.85832247 563.48633906 1014.54861901 470.78036292 993.75732422 388.98632812 C993.0130512 386.05146431 992.28860903 383.11223663 991.56640625 380.171875 C981.59827995 340.13958062 965.33106466 301.83732644 945 266 C944.60022949 265.28392578 944.20045898 264.56785156 943.78857422 263.83007812 C929.31136472 237.92414758 911.86284929 213.24554603 892.43359375 190.8359375 C890.09252895 188.10782667 887.85713553 185.31741519 885.625 182.5 C881.49374186 177.39977404 876.95219502 172.8080333 872.25244141 168.23828125 C868.09194316 164.18388632 868.09194316 164.18388632 867 162 C866.34 162 865.68 162 865 162 C864.67 161.01 864.34 160.02 864 159 C862.54373428 157.52374797 862.54373428 157.52374797 860.6875 156.0625 C856.98466263 152.93492486 853.57243344 149.58827327 850.1875 146.125 C845.64159461 141.51054184 840.92112221 137.31152023 835.84375 133.27734375 C833.2545506 131.20385027 830.72953111 129.07708752 828.21362305 126.91650391 C821.68501955 121.31559344 814.97186827 116.0431336 808 111 C807.09652832 110.34161133 807.09652832 110.34161133 806.17480469 109.66992188 C768.42513679 82.23989538 727.39542266 60.67093079 683.47949219 44.89135742 C681.34245424 44.12310953 679.21319157 43.33776391 677.0859375 42.54296875 C643.10259223 30.13010474 607.68979098 24.031283 572 19 C571.32445068 18.90227295 570.64890137 18.8045459 569.95288086 18.70385742 C551.240325 16.01809876 532.43686193 15.78949879 513.5625 15.8125 C512.55743408 15.81343658 511.55236816 15.81437317 510.5168457 15.81533813 C438.46640838 15.96001487 366.59083067 30.19920087 301.20410156 60.96777344 Z " fill="#FCFCFC" transform="translate(0,0)"/>
<path d="M0 0 C0.99 0 1.98 0 3 0 C5.00825252 4.14202082 5.08594362 7.43961691 5 12 C6.68029297 11.13375 6.68029297 11.13375 8.39453125 10.25 C9.8670265 9.49968395 11.33969164 8.74970125 12.8125 8 C13.55048828 7.6184375 14.28847656 7.236875 15.04882812 6.84375 C15.76103516 6.4828125 16.47324219 6.121875 17.20703125 5.75 C17.8616333 5.41484375 18.51623535 5.0796875 19.19067383 4.734375 C21 4 21 4 24 4 C23.34 6.97 22.68 9.94 22 13 C24.26810547 13.22042969 24.26810547 13.22042969 26.58203125 13.4453125 C40.03866724 14.87249818 52.28511937 17.36686543 65 22 C65.27714844 21.2471875 65.55429687 20.494375 65.83984375 19.71875 C68.98921304 12.33840985 74.80482364 8.1658776 82 5 C91.15548601 1.96115784 101.86000297 3.3559934 110.3515625 7.4765625 C119.59237057 12.79207157 124.51813344 20.05932356 128 30 C129.41451028 38.400459 128.13832359 46.53998201 124 54 C119.78769073 59.65904167 115.16612848 64.52167111 109 68 C109.59377383 72.34635948 110.6636152 76.09659022 112.28515625 80.16796875 C112.73310547 81.30814453 113.18105469 82.44832031 113.64257812 83.62304688 C114.11115234 84.79931641 114.57972656 85.97558594 115.0625 87.1875 C115.99548668 89.53333145 116.92409236 91.88091154 117.84765625 94.23046875 C118.26023682 95.26582764 118.67281738 96.30118652 119.09790039 97.36791992 C120 100 120 100 120 103 C118.2709226 103.02725341 116.54171824 103.04650987 114.8125 103.0625 C113.36810547 103.07990234 113.36810547 103.07990234 111.89453125 103.09765625 C109.13880371 103.00468299 106.68900295 102.57267638 104 102 C104.32572998 102.52094238 104.65145996 103.04188477 104.98706055 103.57861328 C113.53299555 117.26582333 121.84865206 131.07436057 130 145 C129.17113281 145.86882812 128.34226562 146.73765625 127.48828125 147.6328125 C125.48557763 150.03605684 125.02170048 150.75909322 124.73046875 153.9921875 C124.88128906 154.94351563 125.03210938 155.89484375 125.1875 156.875 C125.32542969 157.84179688 125.46335937 158.80859375 125.60546875 159.8046875 C125.73566406 160.52914062 125.86585938 161.25359375 126 162 C125.07703125 162.55945313 124.1540625 163.11890625 123.203125 163.6953125 C107.75401859 173.15431865 93.10485086 183.71932322 78.4621582 194.3684082 C73.072657 198.27061147 67.59687809 202.01963153 62.03198242 205.66699219 C61.47099854 206.03469727 60.91001465 206.40240234 60.33203125 206.78125 C59.78885254 207.13703125 59.24567383 207.4928125 58.68603516 207.859375 C56.82135986 209.12085241 55.0131739 210.44805148 53.19921875 211.78125 C50 214 50 214 48 214 C48 221.59 48 229.18 48 237 C28.37760659 234.81973407 11.03748348 227.74840359 -6 218 C-6.11703104 219.21325909 -6.11703104 219.21325909 -4.6015625 220.41796875 C10.36371698 233.81573872 28.89677956 239.26096017 48.125 243.5 C73.34122152 249.09277701 73.34122152 249.09277701 79.9375 259.125 C81.56553441 261.81570639 82 262.76877023 82 266 C75.73 266 69.46 266 63 266 C63 267.65 63 269.3 63 271 C63.94637329 270.99214478 63.94637329 270.99214478 64.91186523 270.98413086 C67.75373347 270.96342174 70.59558588 270.95035934 73.4375 270.9375 C74.43072266 270.92912109 75.42394531 270.92074219 76.44726562 270.91210938 C77.86362305 270.90727539 77.86362305 270.90727539 79.30859375 270.90234375 C80.62041626 270.89448853 80.62041626 270.89448853 81.95874023 270.88647461 C84 271 84 271 85 272 C85.30759919 277.94691773 84.73787789 280.91742738 83 287 C75.74 287 68.48 287 61 287 C61 288.32 61 289.64 61 291 C61.95261719 291.06058594 62.90523437 291.12117188 63.88671875 291.18359375 C65.14097656 291.26738281 66.39523437 291.35117187 67.6875 291.4375 C68.92886719 291.51871094 70.17023438 291.59992188 71.44921875 291.68359375 C74.38180337 291.94491317 77.13441617 292.34798379 80 293 C76.40207425 300.82157771 71.01484081 304.02779749 63.4375 307.75 C51.3153742 311.78824865 37.55600232 311.32074302 24.93505859 311.26074219 C22.23903214 311.24995612 19.54366355 311.26074121 16.84765625 311.2734375 C-11.69037852 311.29998161 -34.25148961 302.90261888 -55 283 C-58.81273931 279.12870711 -62.41207569 275.07960283 -66 271 C-66.66 270.34 -67.32 269.68 -68 269 C-58.23406853 287.91624549 -44.41318089 302.59822176 -24 310 C-11.79140178 313.89206069 -0.09116355 316.16595761 12.74609375 316.09765625 C13.75720718 316.0962413 14.76832062 316.09482635 15.81007385 316.09336853 C19.01924681 316.08779961 22.22834836 316.07525287 25.4375 316.0625 C27.62174378 316.05748098 29.80598866 316.05291878 31.99023438 316.04882812 C37.32685016 316.03784036 42.663413 316.02059724 48 316 C48 320.95 48 325.9 48 331 C49.98 331.66 51.96 332.32 54 333 C55.61579524 333.81345918 57.20803321 334.67537834 58.7734375 335.58203125 C59.66981934 336.09596436 60.56620117 336.60989746 61.48974609 337.1394043 C62.44187988 337.69152588 63.39401367 338.24364746 64.375 338.8125 C74.00581897 344.34118761 83.72371725 349.67638918 93.54443359 354.8605957 C94.50687988 355.37452881 95.46932617 355.88846191 96.4609375 356.41796875 C97.31478027 356.86938232 98.16862305 357.3207959 99.04833984 357.78588867 C101 359 101 359 102 361 C87.52522033 382.2674137 67.10811087 396.0446793 42 402 C35.68193751 403.15293111 29.43535274 404.14407506 23 404 C22.97421875 402.70707031 22.9484375 401.41414063 22.921875 400.08203125 C22.33945972 379.86890958 17.34006106 363.69342911 2.50390625 349.33203125 C-1.27772724 345.98258445 -5.58798925 343.42361906 -10 341 C-7.61163056 344.08431815 -5.19715102 346.81893838 -2.3125 349.4375 C6.56831747 358.25204271 12.22789951 369.1785065 16 381 C16.20109375 381.62648438 16.4021875 382.25296875 16.609375 382.8984375 C19.96535828 400.95362756 12.88842054 416.25778981 5 432 C4.67 431.34 4.34 430.68 4 430 C-8.54550244 427.22375103 -26.9768521 426.7464963 -38.3125 433.3125 C-42.9145343 436.42321901 -45.59178959 440.04746293 -48 445 C-46.865625 445.25394531 -45.73125 445.50789063 -44.5625 445.76953125 C-43.04160034 446.11689722 -41.52077071 446.46456993 -40 446.8125 C-39.25621094 446.97814453 -38.51242187 447.14378906 -37.74609375 447.31445312 C-32.63668783 448.49183797 -27.87492975 450.06664718 -23 452 C-23.31008884 450.39536551 -23.62316287 448.79130769 -23.9375 447.1875 C-24.19853516 445.84751953 -24.19853516 445.84751953 -24.46484375 444.48046875 C-24.97741153 441.88602829 -24.97741153 441.88602829 -26 439 C-22.01073293 440.13979059 -19.76366755 441.98701905 -17.015625 445.07421875 C-15.51867576 447.91266482 -15.40775266 450.84310958 -15 454 C-22.43803225 454.10153917 -29.8758853 454.17152433 -37.31445312 454.21972656 C-39.84414347 454.23982405 -42.37378746 454.26710668 -44.90332031 454.30175781 C-48.54243417 454.35035556 -52.180933 454.37298812 -55.8203125 454.390625 C-56.94865509 454.41127014 -58.07699768 454.43191528 -59.23953247 454.45318604 C-65.45908733 454.45495767 -69.31319969 454.26149008 -74 450 C-77.46526058 444.25967472 -78.58797366 436.85999919 -80.265625 430.390625 C-82.97902787 420.00503855 -85.82496273 409.6577931 -88.6875 399.3125 C-89.41859426 396.6694622 -90.14932076 394.02632562 -90.87886047 391.38285828 C-91.32650025 389.76087009 -91.77499021 388.13911618 -92.22453308 386.51765442 C-96.29753589 371.76057422 -96.29753589 371.76057422 -96 367 C-96.94875 366.71125 -97.8975 366.4225 -98.875 366.125 C-102 365 -102 365 -104 363 C-107.11536744 353.08227063 -107.28962804 342.87237035 -107.3125 332.5625 C-107.31781738 331.36641113 -107.32313477 330.17032227 -107.32861328 328.93798828 C-107.21222874 314.31641428 -107.21222874 314.31641428 -105 310 C-103.76382935 309.29762207 -103.76382935 309.29762207 -102.50268555 308.58105469 C-99.82443873 307.23542489 -99.82443873 307.23542489 -99.08447266 304.65356445 C-98.9457373 303.732771 -98.80700195 302.81197754 -98.6640625 301.86328125 C-98.49108643 300.82413574 -98.31811035 299.78499023 -98.13989258 298.71435547 C-97.88502075 297.03043701 -97.88502075 297.03043701 -97.625 295.3125 C-95.56189058 283.34300075 -92.65363364 271.93259822 -89.04052734 260.34667969 C-88.09846103 257.3166832 -87.17399563 254.28180591 -86.25553894 251.24458313 C-80.0190726 230.64694101 -73.55658198 210.12248221 -64.15234375 190.71484375 C-62.4048734 186.59792208 -61.5786546 182.41972392 -61 178 C-61.78375 177.814375 -62.5675 177.62875 -63.375 177.4375 C-70.82885883 174.48165943 -77.46615392 169.64964092 -82 163 C-82 162.01 -82 161.02 -82 160 C-84.97 160.33 -87.94 160.66 -91 161 C-90.40984815 155.49191603 -89.43336231 150.35121931 -88 145 C-90.97 145.99 -90.97 145.99 -94 147 C-93.45220832 141.92047713 -92.60724519 137.29602914 -91.1875 132.375 C-87.71723167 119.5795972 -86.59524689 106.13129271 -85 93 C-86.57974609 92.81824219 -86.57974609 92.81824219 -88.19140625 92.6328125 C-97.81036866 91.0345849 -106.14670806 85.31062672 -111.828125 77.48046875 C-116.85164752 68.90057398 -116.8517464 60.63875041 -116 51 C-115.67 50.34 -115.34 49.68 -115 49 C-114.34 49 -113.68 49 -113 49 C-113.06832031 48.28585938 -113.13664062 47.57171875 -113.20703125 46.8359375 C-112.79570918 41.20160129 -108.68343878 37.04195244 -105 33 C-95.61924091 25.55096281 -86.90856866 22.90334315 -75 24 C-66.94521916 25.83115881 -61.10575299 30.64772291 -55 36 C-51.65895601 34.75221045 -48.7949354 33.31983037 -45.8125 31.375 C-35.89648194 25.30942973 -24.77750321 20.94334352 -13.9453125 16.7890625 C-9.68785662 15.06214264 -7.93355829 14.20833275 -6 10 C-4.7422599 8.19970535 -3.43934828 6.43996254 -2.12109375 4.68359375 C-0.81448821 2.88113235 -0.81448821 2.88113235 0 0 Z " fill="#D2D5D8" transform="translate(448,175)"/>
<path d="M0 0 C3.80364578 1.51730132 7.27525614 3.37080543 10.796875 5.453125 C11.47427734 5.84435547 12.15167969 6.23558594 12.84960938 6.63867188 C14.19472067 7.41633449 15.53770994 8.19768057 16.87841797 8.98291016 C19.85915595 10.72491897 22.85966532 12.43153357 25.859375 14.140625 C25.58738281 14.80835938 25.31539062 15.47609375 25.03515625 16.1640625 C23.91560469 18.99827609 22.85494923 21.85039717 21.80419922 24.71069336 C19.11475904 32.00824911 16.16966362 39.09934218 12.859375 46.140625 C12.08415342 47.86782878 11.31303116 49.5968809 10.546875 51.328125 C10.22074219 52.06417969 9.89460937 52.80023438 9.55859375 53.55859375 C9.32785156 54.08066406 9.09710937 54.60273438 8.859375 55.140625 C9.81199219 55.07101562 10.76460937 55.00140625 11.74609375 54.9296875 C21.64259278 54.50250049 21.64259278 54.50250049 24.9375 56.23046875 C27.42532042 58.92560754 27.85815353 61.10581321 27.984375 64.703125 C26.65123542 68.77660705 25.27916231 70.57578452 21.859375 73.140625 C19.1875 73.26953125 19.1875 73.26953125 16.859375 73.140625 C26.65870885 87.90810102 36.54196048 102.61592164 46.4987793 117.27758789 C51.65629107 124.8741616 56.78086977 132.49094918 61.859375 140.140625 C65.12922378 139.5836261 67.81049981 138.84043731 70.7421875 137.29296875 C71.43441406 136.93525391 72.12664062 136.57753906 72.83984375 136.20898438 C73.54753906 135.83580078 74.25523437 135.46261719 74.984375 135.078125 C76.4007247 134.33167043 77.81989691 133.59054043 79.2421875 132.85546875 C79.86496582 132.52667725 80.48774414 132.19788574 81.12939453 131.85913086 C82.859375 131.140625 82.859375 131.140625 85.859375 131.140625 C85.859375 130.480625 85.859375 129.820625 85.859375 129.140625 C88.829375 127.820625 91.799375 126.500625 94.859375 125.140625 C94.859375 135.040625 94.859375 144.940625 94.859375 155.140625 C95.849375 155.140625 96.839375 155.140625 97.859375 155.140625 C98.189375 155.800625 98.519375 156.460625 98.859375 157.140625 C100.88400755 157.79275792 100.88400755 157.79275792 102.859375 158.140625 C102.859375 158.800625 102.859375 159.460625 102.859375 160.140625 C100.87369792 160.62890625 98.88802083 161.1171875 96.90234375 161.60546875 C95.20254298 162.05073205 93.52635546 162.58496485 91.859375 163.140625 C89.96137095 166.9366331 88.97987701 171.05879626 87.859375 175.140625 C88.41625 175.12902344 88.973125 175.11742187 89.546875 175.10546875 C94.75715843 175.04386067 99.7031701 175.39063156 104.859375 176.140625 C104.859375 177.460625 104.859375 178.780625 104.859375 180.140625 C98.919375 180.140625 92.979375 180.140625 86.859375 180.140625 C87.4575 181.914375 88.055625 183.688125 88.671875 185.515625 C89.00832031 186.51335937 89.34476563 187.51109375 89.69140625 188.5390625 C90.7100325 191.4251959 90.7100325 191.4251959 93.859375 193.140625 C96.13475823 193.80675835 96.13475823 193.80675835 98.546875 194.265625 C99.75923828 194.51699219 99.75923828 194.51699219 100.99609375 194.7734375 C101.61097656 194.89460937 102.22585938 195.01578125 102.859375 195.140625 C102.859375 196.130625 102.859375 197.120625 102.859375 198.140625 C100.219375 198.470625 97.579375 198.800625 94.859375 199.140625 C94.529375 213.000625 94.199375 226.860625 93.859375 241.140625 C89.64220703 243.24050781 89.64220703 243.24050781 85.33984375 245.3828125 C82.54589089 246.77586336 79.75230006 248.16963773 76.95874023 249.56347656 C75.05188869 250.51442424 73.14467559 251.46464735 71.23706055 252.4140625 C59.98230367 258.01621936 48.79199451 263.71718015 37.67944336 269.59619141 C29.75544043 273.78582839 21.79988179 277.91196265 13.8112793 281.97705078 C11.94116845 282.93332931 10.0750398 283.89742923 8.21264648 284.86865234 C5.47268418 286.29607629 2.72071565 287.69734429 -0.03515625 289.09375 C-0.86328323 289.53205139 -1.69141022 289.97035278 -2.54463196 290.42193604 C-8.30243642 293.29170232 -8.30243642 293.29170232 -12.38061523 292.55664062 C-13.29141846 292.08935547 -14.20222168 291.62207031 -15.140625 291.140625 C-16.00977539 290.73360352 -16.87892578 290.32658203 -17.77441406 289.90722656 C-18.64291992 289.4531543 -19.51142578 288.99908203 -20.40625 288.53125 C-21.37949219 288.02335937 -22.35273437 287.51546875 -23.35546875 286.9921875 C-24.85787109 286.19941406 -24.85787109 286.19941406 -26.390625 285.390625 C-27.86982422 284.62105469 -27.86982422 284.62105469 -29.37890625 283.8359375 C-35.11006383 280.83066646 -40.68624262 277.66932844 -46.17089844 274.23339844 C-48.05668133 272.97891583 -48.05668133 272.97891583 -50.140625 273.140625 C-51.61308594 275.0206354 -51.61308594 275.0206354 -53.140625 277.453125 C-67.19271494 297.91089043 -87.27067444 310.07795044 -111.140625 316.140625 C-112.30464844 316.43839844 -113.46867187 316.73617188 -114.66796875 317.04296875 C-121.93475403 318.7551212 -128.68136729 319.55164532 -136.140625 319.140625 C-136.28757812 319.72328125 -136.43453125 320.3059375 -136.5859375 320.90625 C-138.32486697 327.26233704 -140.85397612 332.6611378 -144.12890625 338.37890625 C-145.42443218 341.09872033 -145.42443218 341.09872033 -144.43359375 343.80859375 C-143.09575504 346.29640228 -143.09575504 346.29640228 -141.140625 349.140625 C-141.470625 350.130625 -141.800625 351.120625 -142.140625 352.140625 C-142.8625 351.0475 -143.584375 349.954375 -144.328125 348.828125 C-146.55396113 345.68651628 -148.62753979 343.84698067 -152.140625 342.140625 C-151.5141163 337.23457994 -149.38264033 333.31552505 -147.203125 328.953125 C-140.84612679 315.72570024 -138.6646154 301.6816586 -142.765625 287.328125 C-148.12180562 272.15852255 -157.70043618 261.15883965 -169.140625 250.140625 C-168.480625 249.810625 -167.820625 249.480625 -167.140625 249.140625 C-150.3566394 259.65858931 -140.27003079 271.70064533 -134.58764648 291.02075195 C-134.09125069 293.37476872 -134.02755217 295.5012636 -134.04296875 297.90625 C-134.04780273 299.24042969 -134.04780273 299.24042969 -134.05273438 300.6015625 C-134.06111328 301.52195312 -134.06949219 302.44234375 -134.078125 303.390625 C-134.08263672 304.32648438 -134.08714844 305.26234375 -134.09179688 306.2265625 C-134.10355582 308.53131541 -134.11999074 310.83593727 -134.140625 313.140625 C-110.67507953 310.17491304 -87.97296865 303.4560396 -70.140625 287.140625 C-69.51027344 286.57859375 -68.87992188 286.0165625 -68.23046875 285.4375 C-63.4117493 280.90472654 -59.7809465 275.63983407 -56.140625 270.140625 C-59.7462164 267.08486846 -63.37710335 264.79599224 -67.55859375 262.6015625 C-68.16954391 262.2787027 -68.78049408 261.9558429 -69.40995789 261.62319946 C-70.71049373 260.93648952 -72.01224778 260.25208242 -73.31512451 259.56982422 C-76.69609305 257.79922634 -80.06827499 256.0120323 -83.44140625 254.2265625 C-84.10551514 253.87559509 -84.76962402 253.52462769 -85.45385742 253.1630249 C-93.41902106 248.94729107 -101.29026058 244.56576267 -109.140625 240.140625 C-109.140625 235.190625 -109.140625 230.240625 -109.140625 225.140625 C-110.790625 225.470625 -112.440625 225.800625 -114.140625 226.140625 C-115.476368 226.23778881 -116.81541911 226.29756009 -118.15454102 226.31762695 C-119.28842003 226.33687981 -119.28842003 226.33687981 -120.44520569 226.35652161 C-121.25348312 226.36390854 -122.06176056 226.37129547 -122.89453125 226.37890625 C-123.75006088 226.386978 -124.60559052 226.39504974 -125.48704529 226.40336609 C-127.30343626 226.4171793 -129.11985288 226.42791378 -130.9362793 226.43579102 C-132.75406764 226.44717926 -134.57182619 226.46741519 -136.3894043 226.49731445 C-154.34147063 226.7918804 -171.69142962 224.73943808 -188.140625 217.140625 C-189.06875 216.72296875 -189.996875 216.3053125 -190.953125 215.875 C-198.91611754 211.93874801 -204.9164946 206.35581268 -211.140625 200.140625 C-211.8109375 199.48191406 -212.48125 198.82320312 -213.171875 198.14453125 C-217.00852739 194.08988724 -219.84064018 189.56585963 -222.640625 184.765625 C-223.00381836 184.14582764 -223.36701172 183.52603027 -223.74121094 182.88745117 C-224.60867831 181.34123537 -225.38328577 179.7436597 -226.140625 178.140625 C-225.645625 177.150625 -225.645625 177.150625 -225.140625 176.140625 C-223.78570616 177.63994562 -222.43173822 179.14012554 -221.078125 180.640625 C-220.24796875 181.5584375 -219.4178125 182.47625 -218.5625 183.421875 C-216.59867077 185.62643169 -214.71011787 187.86732668 -212.828125 190.140625 C-197.68159761 207.41604218 -177.54240005 216.00363036 -155.140625 219.140625 C-152.14302558 219.29112855 -149.14942775 219.30449945 -146.1484375 219.30859375 C-144.85303543 219.31358635 -144.85303543 219.31358635 -143.53146362 219.31867981 C-141.70424936 219.32372918 -139.87702592 219.32608875 -138.04980469 219.32592773 C-135.30908111 219.3280907 -132.56877624 219.34620207 -129.828125 219.36523438 C-104.96150724 219.80925209 -104.96150724 219.80925209 -83.078125 209.578125 C-81.39537531 207.46111732 -79.76321937 205.30408416 -78.140625 203.140625 C-84.080625 202.150625 -90.020625 201.160625 -96.140625 200.140625 C-96.140625 198.820625 -96.140625 197.500625 -96.140625 196.140625 C-88.880625 196.140625 -81.620625 196.140625 -74.140625 196.140625 C-72.95206319 188.99920364 -72.95206319 188.99920364 -73.140625 181.140625 C-83.535625 180.645625 -83.535625 180.645625 -94.140625 180.140625 C-94.140625 178.490625 -94.140625 176.840625 -94.140625 175.140625 C-87.870625 175.140625 -81.600625 175.140625 -75.140625 175.140625 C-80.04395279 165.33396942 -84.08967666 160.94080688 -94.140625 157.140625 C-100.72922198 155.18209481 -107.4459029 153.6859628 -114.140625 152.140625 C-133.62838003 147.60595006 -153.51106682 141.7873653 -166.140625 125.140625 C-162.68470355 126.41556231 -159.53731488 127.99081261 -156.3347168 129.80566406 C-141.47691812 138.15681973 -125.8123793 142.93375231 -109.140625 146.140625 C-109.32915039 145.22120117 -109.32915039 145.22120117 -109.52148438 144.28320312 C-110.78001228 137.18340648 -111.60995639 130.04700061 -109.140625 123.140625 C-103.66886352 116.64953774 -95.6334444 112.88708079 -88.27392578 108.90332031 C-83.82096577 106.39822671 -79.78152029 103.45594488 -75.703125 100.390625 C-74.25914711 99.33411101 -72.81385079 98.27939642 -71.3671875 97.2265625 C-70.66883789 96.71577148 -69.97048828 96.20498047 -69.25097656 95.67871094 C-59.8884844 88.85505284 -50.40542754 82.22282755 -40.703125 75.890625 C-39.97472412 75.41222168 -39.24632324 74.93381836 -38.49584961 74.44091797 C-33.38253856 71.140625 -33.38253856 71.140625 -31.140625 71.140625 C-31.470625 70.439375 -31.800625 69.738125 -32.140625 69.015625 C-33.29657297 65.69227459 -33.63979065 63.63478455 -33.140625 60.140625 C-31.62500384 57.99140583 -29.88246955 56.11911826 -28.140625 54.140625 C-35.06547564 42.2783626 -42.05274368 30.48111663 -49.53222656 18.95776367 C-50.00756836 18.21888916 -50.48291016 17.48001465 -50.97265625 16.71875 C-51.39264893 16.07325195 -51.8126416 15.42775391 -52.24536133 14.76269531 C-53.140625 13.140625 -53.140625 13.140625 -53.140625 11.140625 C-51.96886719 11.2128125 -50.79710937 11.285 -49.58984375 11.359375 C-48.00261415 11.45329391 -46.41537398 11.54703422 -44.828125 11.640625 C-44.06177734 11.68832031 -43.29542969 11.73601562 -42.50585938 11.78515625 C-40.90251592 11.87829653 -39.29828817 11.95706843 -37.69360352 12.02319336 C-35.9469824 12.10353426 -34.20193638 12.22622465 -32.46069336 12.38500977 C-24.55405975 12.86166822 -19.84447856 10.33826849 -13.328125 6.078125 C-4.18120049 0.18721793 -4.18120049 0.18721793 0 0 Z " fill="#89CA95" transform="translate(605.140625,265.859375)"/>
<path d="M0 0 C0.99 0 1.98 0 3 0 C5.00825252 4.14202082 5.08594362 7.43961691 5 12 C6.68029297 11.13375 6.68029297 11.13375 8.39453125 10.25 C9.8670265 9.49968395 11.33969164 8.74970125 12.8125 8 C13.55048828 7.6184375 14.28847656 7.236875 15.04882812 6.84375 C15.76103516 6.4828125 16.47324219 6.121875 17.20703125 5.75 C17.8616333 5.41484375 18.51623535 5.0796875 19.19067383 4.734375 C21 4 21 4 24 4 C23.34 6.97 22.68 9.94 22 13 C24.26810547 13.22042969 24.26810547 13.22042969 26.58203125 13.4453125 C40.03866724 14.87249818 52.28511937 17.36686543 65 22 C65.27714844 21.2471875 65.55429687 20.494375 65.83984375 19.71875 C68.98921304 12.33840985 74.80482364 8.1658776 82 5 C91.15548601 1.96115784 101.86000297 3.3559934 110.3515625 7.4765625 C119.59237057 12.79207157 124.51813344 20.05932356 128 30 C129.41451028 38.400459 128.13832359 46.53998201 124 54 C119.78769073 59.65904167 115.16612848 64.52167111 109 68 C109.59377383 72.34635948 110.6636152 76.09659022 112.28515625 80.16796875 C112.73310547 81.30814453 113.18105469 82.44832031 113.64257812 83.62304688 C114.11115234 84.79931641 114.57972656 85.97558594 115.0625 87.1875 C115.99548668 89.53333145 116.92409236 91.88091154 117.84765625 94.23046875 C118.26023682 95.26582764 118.67281738 96.30118652 119.09790039 97.36791992 C120 100 120 100 120 103 C118.2709226 103.02725341 116.54171824 103.04650987 114.8125 103.0625 C113.36810547 103.07990234 113.36810547 103.07990234 111.89453125 103.09765625 C109.13880371 103.00468299 106.68900295 102.57267638 104 102 C104.35715088 102.57331055 104.71430176 103.14662109 105.08227539 103.73730469 C108.53165072 109.27897873 111.96633547 114.82946906 115.38818359 120.38818359 C116.73628725 122.5726751 118.09481421 124.75009097 119.45703125 126.92578125 C120.40642578 128.47845703 120.40642578 128.47845703 121.375 130.0625 C121.91898438 130.94035156 122.46296875 131.81820312 123.0234375 132.72265625 C124 135 124 135 123.84765625 137.078125 C122.10253567 141.03480393 118.96959228 143.92082867 116 147 C114.98292969 148.05574219 114.98292969 148.05574219 113.9453125 149.1328125 C102.1494407 160.52052265 87.14512508 168.08375088 72 174 C70.22689453 174.70769531 70.22689453 174.70769531 68.41796875 175.4296875 C37.02180254 187.3397932 -3.30812271 187.03227068 -34.34033203 174.01855469 C-52.46945351 165.77554942 -65.93036884 154.11891993 -73.0546875 135.17578125 C-74.96198536 128.7682062 -75.1492288 122.46382226 -75.1328125 115.83984375 C-75.13376923 114.97291397 -75.13472595 114.10598419 -75.13571167 113.21278381 C-75.13638943 111.38314745 -75.13456343 109.55350864 -75.13037109 107.72387695 C-75.12506295 104.97015756 -75.13030616 102.21660469 -75.13671875 99.46289062 C-75.15380188 61.17246808 -75.15380188 61.17246808 -65 50 C-66.33018321 46.94877405 -66.86560169 46.08362562 -69.8125 44.25 C-75.77610836 41.99958175 -83.25820943 41.59926038 -89.25390625 43.84375 C-93.83550312 46.77280545 -96.21021883 50.95517725 -98 56 C-98.7783777 59.31583451 -98.7783777 59.31583451 -99 62 C-102.76223949 60.41774975 -105.32781174 58.06965534 -108.25 55.25 C-109.14203125 54.40953125 -110.0340625 53.5690625 -110.953125 52.703125 C-113 50 -113 50 -113.50390625 47.01171875 C-112.37999663 40.29439845 -107.44103586 34.93492546 -102.23046875 30.8046875 C-93.26322641 24.94101878 -85.69972892 23.01466487 -75 24 C-66.94521916 25.83115881 -61.10575299 30.64772291 -55 36 C-51.65895601 34.75221045 -48.7949354 33.31983037 -45.8125 31.375 C-35.89648194 25.30942973 -24.77750321 20.94334352 -13.9453125 16.7890625 C-9.68785662 15.06214264 -7.93355829 14.20833275 -6 10 C-4.7422599 8.19970535 -3.43934828 6.43996254 -2.12109375 4.68359375 C-0.81448821 2.88113235 -0.81448821 2.88113235 0 0 Z " fill="#FBFBFB" transform="translate(448,175)"/>
<path d="M0 0 C4 2 8 4 12 6 C12 6.66 12 7.32 12 8 C12.9590625 8.37125 12.9590625 8.37125 13.9375 8.75 C17.99988351 10.40811572 21.99724906 12.2035584 26 14 C26 14.66 26 15.32 26 16 C26.70979004 16.26772217 27.41958008 16.53544434 28.15087891 16.8112793 C31.0946882 18.03950616 33.80124774 19.46475783 36.5859375 21.01953125 C37.6702002 21.62321533 38.75446289 22.22689941 39.87158203 22.84887695 C41.03946756 23.50327603 42.20727161 24.15782055 43.375 24.8125 C44.58567896 25.4886969 45.79645497 26.16472008 47.00732422 26.84057617 C50.0860577 28.56042409 53.16235344 30.28457703 56.23754883 32.01074219 C57.90477982 32.94655324 59.5724926 33.8815058 61.24023438 34.81640625 C71.16354247 40.38360402 81.06103272 45.99181561 90.875 51.75 C91.94645264 52.37805542 91.94645264 52.37805542 93.03955078 53.01879883 C97.87314647 55.87314647 97.87314647 55.87314647 99 57 C99.10952014 58.34755111 99.1512131 59.700703 99.16494751 61.05262756 C99.17618149 61.92592712 99.18741547 62.79922668 99.19898987 63.69898987 C99.20631638 64.66465378 99.21364288 65.63031769 99.22119141 66.62524414 C99.2326973 67.63666473 99.24420319 68.64808533 99.25605774 69.69015503 C99.29292561 73.05512393 99.32247102 76.42011174 99.3515625 79.78515625 C99.37467105 82.11869072 99.39806131 84.45222241 99.42172241 86.78575134 C99.47027562 91.68941843 99.51518305 96.59310244 99.55761719 101.49682617 C99.61224279 107.77258876 99.67611176 114.04821645 99.74279213 120.32386112 C99.79298191 125.14947687 99.83806081 129.97513023 99.88163376 134.80080986 C99.90315891 137.11360662 99.92629984 139.42638894 99.9510994 141.73915291 C99.9851378 144.98241125 100.01224737 148.22565777 100.03759766 151.46899414 C100.04897263 152.42048843 100.0603476 153.37198273 100.07206726 154.35231018 C100.10538168 159.67038335 99.78357297 164.73816358 99 170 C89.38384439 165.25160868 79.84251585 160.38575086 70.38549805 155.32666016 C66.65070433 153.340312 62.98376194 151.45299534 59 150 C58.61070312 150.59425781 58.22140625 151.18851563 57.8203125 151.80078125 C43.1859333 173.48259191 23.26347436 186.58338749 -2 193 C-3.16402344 193.29777344 -4.32804687 193.59554687 -5.52734375 193.90234375 C-12.79412903 195.6144962 -19.54074229 196.41102032 -27 196 C-27.14695312 196.58265625 -27.29390625 197.1653125 -27.4453125 197.765625 C-29.18424197 204.12171204 -31.71335112 209.5205128 -34.98828125 215.23828125 C-36.28380718 217.95809533 -36.28380718 217.95809533 -35.29296875 220.66796875 C-33.95513004 223.15577728 -33.95513004 223.15577728 -32 226 C-32.33 226.99 -32.66 227.98 -33 229 C-33.721875 227.906875 -34.44375 226.81375 -35.1875 225.6875 C-37.41333613 222.54589128 -39.48691479 220.70635567 -43 219 C-42.3734913 214.09395494 -40.24201533 210.17490005 -38.0625 205.8125 C-31.70550179 192.58507524 -29.5239904 178.5410336 -33.625 164.1875 C-38.98118062 149.01789755 -48.55981118 138.01821465 -60 127 C-59.34 126.67 -58.68 126.34 -58 126 C-41.2160144 136.51796431 -31.12940579 148.56002033 -25.44702148 167.88012695 C-24.95062569 170.23414372 -24.88692717 172.3606386 -24.90234375 174.765625 C-24.90717773 176.09980469 -24.90717773 176.09980469 -24.91210938 177.4609375 C-24.92467773 178.84152344 -24.92467773 178.84152344 -24.9375 180.25 C-24.94201172 181.18585938 -24.94652344 182.12171875 -24.95117188 183.0859375 C-24.96293082 185.39069041 -24.97936574 187.69531227 -25 190 C-1.53445453 187.03428804 21.16765635 180.3154146 39 164 C39.63035156 163.43796875 40.26070312 162.8759375 40.91015625 162.296875 C45.7288757 157.76410154 49.3596785 152.49920907 53 147 C49.3944086 143.94424346 45.76352165 141.65536724 41.58203125 139.4609375 C40.97108109 139.1380777 40.36013092 138.8152179 39.73066711 138.48257446 C38.43013127 137.79586452 37.12837722 137.11145742 35.82550049 136.42919922 C32.44453195 134.65860134 29.07235001 132.8714073 25.69921875 131.0859375 C25.03510986 130.73497009 24.37100098 130.38400269 23.68676758 130.0223999 C15.72160394 125.80666607 7.85036442 121.42513767 0 117 C0 112.05 0 107.1 0 102 C-1.65 102.33 -3.3 102.66 -5 103 C-6.335743 103.09716381 -7.67479411 103.15693509 -9.01391602 103.17700195 C-10.14779503 103.19625481 -10.14779503 103.19625481 -11.30458069 103.21589661 C-12.11285812 103.22328354 -12.92113556 103.23067047 -13.75390625 103.23828125 C-14.60943588 103.246353 -15.46496552 103.25442474 -16.34642029 103.26274109 C-18.16281126 103.2765543 -19.97922788 103.28728878 -21.7956543 103.29516602 C-23.61344264 103.30655426 -25.43120119 103.32679019 -27.2487793 103.35668945 C-45.20084563 103.6512554 -62.55080462 101.59881308 -79 94 C-79.928125 93.58234375 -80.85625 93.1646875 -81.8125 92.734375 C-89.77549254 88.79812301 -95.7758696 83.21518768 -102 77 C-102.6703125 76.34128906 -103.340625 75.68257813 -104.03125 75.00390625 C-107.86790239 70.94926224 -110.70001518 66.42523463 -113.5 61.625 C-113.86319336 61.00520264 -114.22638672 60.38540527 -114.60058594 59.74682617 C-115.46805331 58.20061037 -116.24266077 56.6030347 -117 55 C-116.67 54.34 -116.34 53.68 -116 53 C-114.64508116 54.49932062 -113.29111322 55.99950054 -111.9375 57.5 C-111.10734375 58.4178125 -110.2771875 59.335625 -109.421875 60.28125 C-107.45804577 62.48580669 -105.56949287 64.72670168 -103.6875 67 C-88.54097261 84.27541718 -68.40177505 92.86300536 -46 96 C-43.00240058 96.15050355 -40.00880275 96.16387445 -37.0078125 96.16796875 C-36.14421112 96.17129715 -35.28060974 96.17462555 -34.39083862 96.17805481 C-32.56362436 96.18310418 -30.73640092 96.18546375 -28.90917969 96.18530273 C-26.16845611 96.1874657 -23.42815124 96.20557707 -20.6875 96.22460938 C4.17911776 96.66862709 4.17911776 96.66862709 26.0625 86.4375 C27.74524969 84.32049232 29.37740563 82.16345916 31 80 C25.06 79.01 19.12 78.02 13 77 C13 75.68 13 74.36 13 73 C20.26 73 27.52 73 35 73 C36.18856181 65.85857864 36.18856181 65.85857864 36 58 C29.07 57.67 22.14 57.34 15 57 C15 55.35 15 53.7 15 52 C21.27 52 27.54 52 34 52 C29.09667221 42.19334442 25.05094834 37.80018188 15 34 C8.41140302 32.04146981 1.6947221 30.5453378 -5 29 C-24.48775503 24.46532506 -44.37044182 18.6467403 -57 2 C-53.54407855 3.27493731 -50.39668988 4.85018761 -47.1940918 6.66503906 C-32.27435214 15.05101003 -16.70931272 19.65813746 0 23 C0 15.41 0 7.82 0 0 Z " fill="#205F98" transform="translate(496,389)"/>
<path d="M0 0 C0 9.9 0 19.8 0 30 C0.99 30 1.98 30 3 30 C3.495 30.99 3.495 30.99 4 32 C6.02463255 32.65213292 6.02463255 32.65213292 8 33 C8 33.66 8 34.32 8 35 C6.01432292 35.48828125 4.02864583 35.9765625 2.04296875 36.46484375 C0.34316798 36.91010705 -1.33301954 37.44433985 -3 38 C-4.89800405 41.7960081 -5.87949799 45.91817126 -7 50 C-6.443125 49.98839844 -5.88625 49.97679687 -5.3125 49.96484375 C-0.10221657 49.90323567 4.8437951 50.25000656 10 51 C10 52.32 10 53.64 10 55 C4.06 55 -1.88 55 -8 55 C-7.401875 56.77375 -6.80375 58.5475 -6.1875 60.375 C-5.85105469 61.37273437 -5.51460937 62.37046875 -5.16796875 63.3984375 C-4.1493425 66.2845709 -4.1493425 66.2845709 -1 68 C1.27538323 68.66613335 1.27538323 68.66613335 3.6875 69.125 C4.49574219 69.29257812 5.30398438 69.46015625 6.13671875 69.6328125 C7.05904297 69.81457031 7.05904297 69.81457031 8 70 C8 70.99 8 71.98 8 73 C5.36 73.33 2.72 73.66 0 74 C-0.33 87.86 -0.66 101.72 -1 116 C-3.81144531 117.39992188 -6.62289062 118.79984375 -9.51953125 120.2421875 C-12.31348411 121.63523836 -15.10707494 123.02901273 -17.90063477 124.42285156 C-19.80748631 125.37379924 -21.71469941 126.32402235 -23.62231445 127.2734375 C-34.0825861 132.48013217 -44.49614153 137.7538619 -54.81925964 143.22772217 C-63.58543766 147.86301131 -72.44969422 152.30019205 -81.32275391 156.7265625 C-84.18675056 158.1558161 -87.04851684 159.58947101 -89.91015625 161.0234375 C-91.73424639 161.93515319 -93.55846016 162.84662159 -95.3828125 163.7578125 C-96.66371262 164.39978073 -96.66371262 164.39978073 -97.9704895 165.05471802 C-98.74995941 165.44287689 -99.52942932 165.83103577 -100.33251953 166.23095703 C-101.36241501 166.74530807 -101.36241501 166.74530807 -102.41311646 167.27005005 C-104 168 -104 168 -105 168 C-104.99885445 167.45019659 -104.99770889 166.90039318 -104.99652863 166.33392906 C-104.97117159 152.12973528 -105.05494228 137.9297312 -105.21875 123.7265625 C-105.24127623 121.69534419 -105.26369425 119.66412468 -105.28601074 117.63290405 C-105.34412461 112.36914857 -105.40367592 107.10541038 -105.46356201 101.8416748 C-105.52478047 96.43742858 -105.5845906 91.03316677 -105.64453125 85.62890625 C-105.76166892 75.08592209 -105.88033033 64.5429557 -106 54 C-105.16995956 53.66240158 -104.33991913 53.32480316 -103.48472595 52.97697449 C-101.85634544 52.30810966 -101.85634544 52.30810966 -100.19506836 51.62573242 C-99.11752792 51.185009 -98.03998749 50.74428558 -96.92979431 50.29020691 C-93.66515102 48.85254102 -90.93132525 47.02448379 -88 45 C-84.69219942 43.29735556 -81.31251315 41.75172242 -77.9375 40.1875 C-68.2673922 35.63765549 -58.73715757 30.85382744 -49.25 25.9375 C-48.60940643 25.60640228 -47.96881287 25.27530457 -47.30880737 24.93417358 C-40.00331536 21.22898869 -40.00331536 21.22898869 -33 17 C-32.01 17 -31.02 17 -30 17 C-30 16.34 -30 15.68 -30 15 C-27.44113496 13.67997444 -24.87832932 12.36886218 -22.3125 11.0625 C-21.59126953 10.68931641 -20.87003906 10.31613281 -20.12695312 9.93164062 C-16.43494258 8.06034761 -13.16306904 6.51730444 -9 6 C-9 5.34 -9 4.68 -9 4 C-7.68872739 3.3309224 -6.3759455 2.66480194 -5.0625 2 C-3.96615234 1.443125 -3.96615234 1.443125 -2.84765625 0.875 C-1 0 -1 0 0 0 Z " fill="#55B9AB" transform="translate(700,391)"/>
<path d="M0 0 C3.81141001 2.64362837 6.92533108 5.89205353 10.14453125 9.2109375 C25.98849829 25.47112084 45.67403262 31.79905206 67.3125 36.5625 C92.33229027 42.07919355 92.33229027 42.07919355 98.9375 52.125 C100.56553441 54.81570639 101 55.76877023 101 59 C94.73 59 88.46 59 82 59 C82 60.65 82 62.3 82 64 C82.63091553 63.99476318 83.26183105 63.98952637 83.91186523 63.98413086 C86.75373347 63.96342174 89.59558588 63.95035934 92.4375 63.9375 C93.92733398 63.92493164 93.92733398 63.92493164 95.44726562 63.91210938 C96.86362305 63.90727539 96.86362305 63.90727539 98.30859375 63.90234375 C99.18314209 63.89710693 100.05769043 63.89187012 100.95874023 63.88647461 C103 64 103 64 104 65 C104.30759919 70.94691773 103.73787789 73.91742738 102 80 C94.74 80 87.48 80 80 80 C80 81.32 80 82.64 80 84 C82.97 84.33 85.94 84.66 89 85 C89 85.66 89 86.32 89 87 C43.6344073 88.07415253 43.6344073 88.07415253 22 82 C20.76540039 81.65509521 20.76540039 81.65509521 19.50585938 81.30322266 C-2.93744492 74.7564867 -23.56275448 60.71222572 -35 40 C-39.42241624 31.29265195 -41.87075345 23.84742989 -41 14 C-38.48684908 6.98963164 -32.42487438 1.13246958 -25.73046875 -2.09375 C-17.69168659 -4.76184365 -7.58306656 -3.67386501 0 0 Z " fill="#FBFBFB" transform="translate(429,382)"/>
<path d="M0 0 C0.66 0 1.32 0 2 0 C3.375 1.43359375 3.375 1.43359375 5 3.4375 C18.24004154 18.80781299 36.07289782 29.0412812 55.09448242 35.73730469 C58.98616696 37.1135389 62.00569301 38.37458595 65.0625 41.25 C65.72507812 41.87261719 66.38765625 42.49523437 67.0703125 43.13671875 C67.70710938 43.75160156 68.34390625 44.36648438 69 45 C69.57492187 45.50144531 70.14984375 46.00289062 70.7421875 46.51953125 C80.20801458 55.13474253 86.16090142 66.96853926 90 79 C90.20109375 79.62648438 90.4021875 80.25296875 90.609375 80.8984375 C93.48009673 96.3429204 88.82433869 110.30715214 82 124 C62.49427805 125.57586623 45.48462631 118.4951309 30.25 106.75 C15.35100442 93.92942525 7.57223523 78.46612836 2 60 C1.66742188 59.11441406 1.33484375 58.22882812 0.9921875 57.31640625 C-1.77025291 48.08289481 -2.3304248 38.83634857 -2.25 29.25 C-2.24613281 28.12416504 -2.24226563 26.99833008 -2.23828125 25.83837891 C-2.14813358 17.09781075 -1.45818772 8.618931 0 0 Z " fill="#FBFCFC" transform="translate(374,477)"/>
<path d="M0 0 C7.486875 -0.0825 14.97375 -0.165 22.6875 -0.25 C25.02287842 -0.28641602 27.35825684 -0.32283203 29.7644043 -0.36035156 C55.89434415 -0.59869027 55.89434415 -0.59869027 66.41015625 8.31640625 C70.70448788 12.86396628 72.22471428 17.28026317 72.5 23.5 C72.24911146 29.53805078 70.72165438 34.27834562 66.3984375 38.6015625 C64.98556461 39.80016083 63.49842184 40.91023866 62 42 C62.99 42.66 63.98 43.32 65 44 C70.82817476 48.55913671 75.3798356 52.23048819 76.37890625 59.9140625 C76.82711796 68.0581647 75.42852603 73.80754493 70 80 C61.52194714 87.37608372 51.3279109 88.44389544 40.52734375 88.29296875 C39.49452271 88.28994751 38.46170166 88.28692627 37.39758301 88.28381348 C33.57745218 88.26823943 29.75746496 88.22635643 25.9375 88.1875 C17.378125 88.125625 8.81875 88.06375 0 88 C0 58.96 0 29.92 0 0 Z " fill="#3C8045" transform="translate(755,683)"/>
<path d="M0 0 C3.80364578 1.51730132 7.27525614 3.37080543 10.796875 5.453125 C11.47427734 5.84435547 12.15167969 6.23558594 12.84960938 6.63867188 C14.19472067 7.41633449 15.53770994 8.19768057 16.87841797 8.98291016 C19.85915595 10.72491897 22.85966532 12.43153357 25.859375 14.140625 C25.58738281 14.80835938 25.31539062 15.47609375 25.03515625 16.1640625 C23.91560469 18.99827609 22.85494923 21.85039717 21.80419922 24.71069336 C19.11475904 32.00824911 16.16966362 39.09934218 12.859375 46.140625 C12.08415342 47.86782878 11.31303116 49.5968809 10.546875 51.328125 C10.22074219 52.06417969 9.89460937 52.80023438 9.55859375 53.55859375 C9.32785156 54.08066406 9.09710937 54.60273438 8.859375 55.140625 C10.28830078 55.03621094 10.28830078 55.03621094 11.74609375 54.9296875 C21.64259278 54.50250049 21.64259278 54.50250049 24.9375 56.23046875 C27.46412835 58.96764947 27.85884688 61.10999399 27.921875 64.765625 C26.71607145 68.59582452 26.11381688 69.82507244 22.859375 72.140625 C19.58853049 72.68319643 16.36177829 72.5781858 13.0546875 72.50390625 C11.08984365 72.50377181 9.1249996 72.50444807 7.16015625 72.50585938 C4.07011236 72.48498402 0.98085752 72.45307031 -2.10888672 72.4050293 C-5.09674221 72.36616095 -8.08227047 72.37016415 -11.0703125 72.37890625 C-11.98924286 72.35210281 -12.90817322 72.32529938 -13.85494995 72.29768372 C-18.79374757 72.31323466 -18.79374757 72.31323466 -23.00509644 74.62896729 C-24.54015426 76.3987256 -25.84960613 78.18789503 -27.140625 80.140625 C-28.01755874 81.2935577 -28.8995971 82.44264493 -29.7890625 83.5859375 C-30.70001495 84.81094244 -31.60877068 86.03758318 -32.515625 87.265625 C-33.56051148 88.66848029 -34.60612424 90.07079482 -35.65234375 91.47265625 C-36.20970215 92.2198291 -36.76706055 92.96700195 -37.34130859 93.73681641 C-53.46487186 115.27719686 -53.46487186 115.27719686 -62.04296875 125.57421875 C-65.07407266 129.28266431 -67.97411658 133.08872268 -70.86865234 136.90429688 C-72.54268104 139.10379023 -74.18331268 141.18331268 -76.140625 143.140625 C-78.450625 141.820625 -80.760625 140.500625 -83.140625 139.140625 C-83.140625 138.480625 -83.140625 137.820625 -83.140625 137.140625 C-83.86636719 137.02847656 -84.59210937 136.91632813 -85.33984375 136.80078125 C-88.26626493 136.11101113 -90.36350309 135.08551686 -92.953125 133.578125 C-93.74332031 133.12308594 -94.53351563 132.66804687 -95.34765625 132.19921875 C-95.93933594 131.84988281 -96.53101563 131.50054687 -97.140625 131.140625 C-97.140625 130.480625 -97.140625 129.820625 -97.140625 129.140625 C-97.8625 129.058125 -98.584375 128.975625 -99.328125 128.890625 C-102.69375754 127.99312299 -104.55675316 126.4291972 -107.140625 124.140625 C-105.87594422 120.34658265 -104.50906519 119.77084973 -101.20703125 117.5859375 C-100.17553955 116.89588623 -99.14404785 116.20583496 -98.08129883 115.49487305 C-97.53100006 115.13179047 -96.98070129 114.76870789 -96.41372681 114.3946228 C-93.5148138 112.48133918 -90.63308766 110.54248285 -87.75 108.60546875 C-87.17385452 108.21923843 -86.59770905 107.83300812 -86.00410461 107.43507385 C-81.40298817 104.34162927 -76.91264262 101.12071658 -72.453125 97.828125 C-64.17585058 91.75746171 -55.66931648 86.03671135 -47.140625 80.328125 C-46.46125885 79.87126312 -45.7818927 79.41440125 -45.0819397 78.94369507 C-43.14651256 77.64356774 -41.20686246 76.3500247 -39.265625 75.05859375 C-38.67690109 74.66240845 -38.08817719 74.26622314 -37.48161316 73.85803223 C-33.37047122 71.140625 -33.37047122 71.140625 -31.140625 71.140625 C-31.635625 70.08875 -31.635625 70.08875 -32.140625 69.015625 C-33.29657297 65.69227459 -33.63979065 63.63478455 -33.140625 60.140625 C-31.62500384 57.99140583 -29.88246955 56.11911826 -28.140625 54.140625 C-35.06547564 42.2783626 -42.05274368 30.48111663 -49.53222656 18.95776367 C-50.00756836 18.21888916 -50.48291016 17.48001465 -50.97265625 16.71875 C-51.39264893 16.07325195 -51.8126416 15.42775391 -52.24536133 14.76269531 C-53.140625 13.140625 -53.140625 13.140625 -53.140625 11.140625 C-51.96886719 11.2128125 -50.79710937 11.285 -49.58984375 11.359375 C-48.00261415 11.45329391 -46.41537398 11.54703422 -44.828125 11.640625 C-44.06177734 11.68832031 -43.29542969 11.73601562 -42.50585938 11.78515625 C-40.90251592 11.87829653 -39.29828817 11.95706843 -37.69360352 12.02319336 C-35.9469824 12.10353426 -34.20193638 12.22622465 -32.46069336 12.38500977 C-24.55405975 12.86166822 -19.84447856 10.33826849 -13.328125 6.078125 C-4.18120049 0.18721793 -4.18120049 0.18721793 0 0 Z " fill="#3BA9AE" transform="translate(605.140625,265.859375)"/>
<path d="M0 0 C6.6 0 13.2 0 20 0 C20 11.88 20 23.76 20 36 C33.2 36 46.4 36 60 36 C60 24.12 60 12.24 60 0 C66.6 0 73.2 0 80 0 C80 29.04 80 58.08 80 88 C73.4 88 66.8 88 60 88 C60 76.45 60 64.9 60 53 C46.8 53 33.6 53 20 53 C20 64.55 20 76.1 20 88 C13.4 88 6.8 88 0 88 C0 58.96 0 29.92 0 0 Z " fill="#1E457F" transform="translate(467,683)"/>
<path d="M0 0 C1.18613892 0.00785522 1.18613892 0.00785522 2.39624023 0.01586914 C3.67724609 0.02070312 3.67724609 0.02070312 4.98413086 0.02563477 C5.88196289 0.03401367 6.77979492 0.04239258 7.70483398 0.05102539 C8.6065332 0.05553711 9.50823242 0.06004883 10.43725586 0.06469727 C12.67234712 0.07652315 14.90730835 0.09300319 17.14233398 0.11352539 C20.61425507 6.89312424 23.80310696 13.75022516 26.82983398 20.73852539 C31.97523615 32.52647459 37.23435325 44.26168098 42.51733398 55.98852539 C43.10253311 57.28805145 43.10253311 57.28805145 43.69955444 58.61383057 C44.83372173 61.13214072 45.96845996 63.65019299 47.10327148 66.16821289 C47.45905777 66.95849884 47.81484406 67.74878479 48.18141174 68.5630188 C50.53563614 73.78694622 52.9226883 78.99470789 55.35180664 84.18432617 C56.14233398 86.11352539 56.14233398 86.11352539 56.14233398 88.11352539 C49.21233398 88.11352539 42.28233398 88.11352539 35.14233398 88.11352539 C32.41114957 82.13444599 29.73219258 76.15652877 27.14233398 70.11352539 C7.34233398 69.61852539 7.34233398 69.61852539 -12.85766602 69.11352539 C-13.18766602 70.76352539 -13.51766602 72.41352539 -13.85766602 74.11352539 C-14.65173049 76.3776822 -15.48753751 78.62749748 -16.35766602 80.86352539 C-16.80110352 82.01336914 -17.24454102 83.16321289 -17.70141602 84.34790039 C-18.85766602 87.11352539 -18.85766602 87.11352539 -19.85766602 88.11352539 C-21.34638461 88.20021971 -22.83911101 88.22056033 -24.33032227 88.21118164 C-25.22944336 88.20795898 -26.12856445 88.20473633 -27.05493164 88.20141602 C-28.47322266 88.18884766 -28.47322266 88.18884766 -29.92016602 88.17602539 C-30.86956055 88.17151367 -31.81895508 88.16700195 -32.79711914 88.16235352 C-35.15069667 88.15052649 -37.50415079 88.13404564 -39.85766602 88.11352539 C-39.23687068 84.33847619 -38.13979847 81.19697643 -36.54907227 77.72290039 C-36.05793945 76.64065186 -35.56680664 75.55840332 -35.06079102 74.44335938 C-34.51938477 73.26201416 -33.97797852 72.08066895 -33.42016602 70.86352539 C-32.24114594 68.26733172 -31.06683969 65.66901576 -29.89282227 63.07055664 C-29.57749542 62.37362198 -29.26216858 61.67668732 -28.93728638 60.95863342 C-25.0810331 52.42073853 -21.31325767 43.84393094 -17.54879761 35.26525879 C-16.38025379 32.60249619 -15.2099229 29.94052385 -14.03955078 27.27856445 C-10.52358316 19.27002204 -7.03690534 11.25884914 -3.75024414 3.15283203 C-2.43543299 0.14883379 -2.43543299 0.14883379 0 0 Z " fill="#1D4480" transform="translate(321.857666015625,682.886474609375)"/>
<path d="M0 0 C11.61325085 10.90941747 20.67772373 24.16725426 21.4375 40.3125 C21.24381786 50.78344076 16.1962386 59.57162468 9 67 C0.43117501 74.27051817 -9.52616271 77.79058229 -20.734375 77.37890625 C-32.44400171 76.02025339 -42.38730876 70.67575226 -49.9375 61.625 C-55.84524946 53.34857741 -57.14223618 45.06046478 -56 35 C-53.50032256 23.65887086 -48.83978976 13.01659304 -43 3 C-42.34 2.67 -41.68 2.34 -41 2 C-41.33 9.26 -41.66 16.52 -42 24 C-40.68 24 -39.36 24 -38 24 C-37.814375 23.4225 -37.62875 22.845 -37.4375 22.25 C-34.69922418 17.96400307 -29.94732478 16.0805022 -25.1875 14.75 C-20.36734032 13.81111672 -15.51975759 13.79070484 -10.625 13.75 C-9.42846802 13.73598145 -9.42846802 13.73598145 -8.20776367 13.72167969 C-4.29809018 13.74331918 -2.32252327 13.78498449 1 16 C4.12521833 16.16699232 4.12521833 16.16699232 7 16 C5.46462911 12.23834132 3.87896795 8.68799375 1.8125 5.1875 C0 2 0 2 0 0 Z " fill="#D6D9DC" transform="translate(495,273)"/>
<path d="M0 0 C6.93 0 13.86 0 21 0 C21.0093457 1.71509766 21.01869141 3.43019531 21.02832031 5.19726562 C21.06396402 10.88915096 21.11783522 16.58067247 21.18390274 22.27228546 C21.22326903 25.72027886 21.2555099 29.16802104 21.27099609 32.61621094 C21.28915662 36.58821815 21.33915575 40.55952946 21.390625 44.53125 C21.39246796 46.37233337 21.39246796 46.37233337 21.39434814 48.25061035 C21.51374004 55.27778086 22.13633686 60.05994646 26 66 C31.8462786 70.65316051 36.73828235 71.64626937 44 71 C48.3123979 70.03916749 51.2320374 68.7679626 54.375 65.625 C57.16592858 61.11657692 58.24827479 57.50467834 58.31884766 52.19995117 C58.33871735 51.05914597 58.35858704 49.91834076 58.37905884 48.7429657 C58.39061005 47.52196671 58.40216125 46.30096771 58.4140625 45.04296875 C58.43342865 43.78486893 58.4527948 42.5267691 58.4727478 41.23054504 C58.52233077 37.89825681 58.56363098 34.56607669 58.60089111 31.23364258 C58.64101624 27.82818761 58.6920696 24.4228981 58.7421875 21.01757812 C58.83817501 14.34514966 58.92223075 7.67266467 59 1 C65.6 1 72.2 1 79 1 C79.04534148 8.29370023 79.08196799 15.58732231 79.10362434 22.88113403 C79.11402286 26.26862868 79.12810933 29.65602116 79.15087891 33.04345703 C79.17522296 36.94566514 79.18650525 40.84772963 79.1953125 44.75 C79.20563507 45.95551514 79.21595764 47.16103027 79.22659302 48.40307617 C79.22805739 59.45969929 77.46104979 69.60496785 70.05859375 78.2734375 C64.66411178 83.46526452 59.12638548 85.93217995 52 88 C51.01 88.33 50.02 88.66 49 89 C35.43642574 89.90920663 22.61811423 89.13972675 11.86328125 79.83984375 C4.56002421 72.62845158 0.34010572 62.60587913 -0.12025452 52.31071472 C-0.11803391 51.34474869 -0.11581329 50.37878265 -0.11352539 49.38354492 C-0.11344986 48.28278122 -0.11337433 47.18201752 -0.11329651 46.04789734 C-0.10813522 44.8706459 -0.10297394 43.69339447 -0.09765625 42.48046875 C-0.0962413 41.26676102 -0.09482635 40.05305328 -0.09336853 38.80256653 C-0.08777665 34.93085248 -0.07522558 31.05919653 -0.0625 27.1875 C-0.05748395 24.56054771 -0.05292123 21.93359451 -0.04882812 19.30664062 C-0.03780987 12.87107141 -0.02055075 6.43554555 0 0 Z " fill="#3A7E42" transform="translate(656,683)"/>
<path d="M0 0 C-1.09698167 5.69139902 -2.54053077 10.74567937 -5 16 C-6.54202616 15.54287762 -8.08360214 15.08423653 -9.625 14.625 C-10.48351562 14.36976563 -11.34203125 14.11453125 -12.2265625 13.8515625 C-15 13 -15 13 -17.73828125 11.92578125 C-22.05689476 10.70001909 -26.09401035 10.59360318 -30.5625 10.5625 C-31.39974609 10.52962891 -32.23699219 10.49675781 -33.09960938 10.46289062 C-37.53118221 10.42429419 -39.42481463 10.56751329 -43.0703125 13.30859375 C-45.29216735 15.92619549 -45.29216735 15.92619549 -45.3125 19.5 C-43.47703025 24.394586 -40.59234822 25.75933167 -36 28 C-32.42626585 29.23140415 -28.80151824 30.13017725 -25.125 31 C-14.95774859 33.42547468 -5.12846108 35.99882279 1 45 C4.29495837 50.43726345 3.75351492 57.24508953 2.53515625 63.31640625 C0.1770475 70.44654573 -4.22329185 75.31326213 -10.8125 78.8125 C-23.05883707 84.82284633 -39.3251577 85.18068708 -52.125 80.8125 C-57.70452722 78.69675295 -62.96458015 76.2068392 -68 73 C-67.37099631 69.3945768 -66.41162002 66.15080065 -65.0625 62.75 C-64.72347656 61.87859375 -64.38445312 61.0071875 -64.03515625 60.109375 C-63 58 -63 58 -61 57 C-58.33617951 58.22399743 -55.77125927 59.49914244 -53.1875 60.875 C-46.21560588 64.57231218 -41.06398109 66.14574617 -33.0625 66.25 C-31.87785156 66.27578125 -30.69320312 66.3015625 -29.47265625 66.328125 C-24.71386375 65.87847531 -21.38071294 64.38071294 -18 61 C-17.49957854 58.08461971 -17.49957854 58.08461971 -18 55 C-20.8527367 51.44412397 -23.40792919 50.25822255 -27.75 49.0625 C-28.8946875 48.73121094 -30.039375 48.39992188 -31.21875 48.05859375 C-33.1535973 47.51691646 -35.08845101 46.97526189 -37.0234375 46.43408203 C-58.08173809 40.46921906 -58.08173809 40.46921906 -64 31 C-66.91804122 24.87211343 -67.19358654 17.71397242 -65.125 11.27734375 C-61.04423557 2.37751869 -55.43964364 -1.82716367 -46.4296875 -5.23828125 C-31.05781787 -10.05743652 -14.12642692 -7.02754066 0 0 Z " fill="#1D437F" transform="translate(449,689)"/>
<path d="M0 0 C2.46650801 2.04323015 4.68558416 4.16032315 6.84375 6.52734375 C5.31156315 10.15796042 3.1254356 12.51372105 0.34375 15.27734375 C-0.4503125 16.0765625 -1.244375 16.87578125 -2.0625 17.69921875 C-4.15625 19.52734375 -4.15625 19.52734375 -6.15625 19.52734375 C-6.8575 18.78484375 -7.55875 18.04234375 -8.28125 17.27734375 C-14.0632708 11.74671516 -18.58619944 10.26632597 -26.65625 10.08984375 C-34.72197935 10.32235483 -41.31360836 11.52679288 -47.15625 17.52734375 C-53.00636418 26.50967204 -54.73446696 34.84735804 -52.54296875 45.51171875 C-49.90983357 53.90991201 -45.30782433 58.05236675 -37.90625 62.46484375 C-28.83654567 65.03459331 -20.39181433 64.09778991 -12.15625 59.52734375 C-9.96108777 57.97755921 -8.11412469 56.3821724 -6.15625 54.52734375 C-2.47555113 56.06378227 -0.16849796 58.3088532 2.59375 61.15234375 C3.39296875 61.96960938 4.1921875 62.786875 5.015625 63.62890625 C5.61890625 64.25539063 6.2221875 64.881875 6.84375 65.52734375 C0.34912425 74.07290395 -8.41816686 79.88680327 -19.15625 81.52734375 C-29.63358551 82.41898047 -39.6434883 82.49119194 -49.15625 77.52734375 C-50.02636719 77.08003906 -50.89648438 76.63273438 -51.79296875 76.171875 C-63.20794632 69.80747046 -69.00086618 61.57205695 -73.296875 49.2578125 C-76.04940828 37.30931577 -75.50339145 24.16764453 -69.15625 13.52734375 C-68.72183594 12.79515625 -68.28742188 12.06296875 -67.83984375 11.30859375 C-61.00232558 1.1789372 -50.10117528 -5.62687802 -38.203125 -8.08203125 C-24.64703507 -9.8199915 -11.2472028 -8.24654981 0 0 Z " fill="#1C437F" transform="translate(272.15625,690.47265625)"/>
<path d="M0 0 C2.44646308 2.44646308 2.8322108 3.22062592 3.4375 6.4375 C1.86556337 7.94943905 0.27951199 9.44671421 -1.3125 10.9375 C-2.19421875 11.7728125 -3.0759375 12.608125 -3.984375 13.46875 C-6.5625 15.4375 -6.5625 15.4375 -10.5625 15.4375 C-12.2734375 14.4140625 -12.2734375 14.4140625 -13.9375 13.0625 C-21.08527405 7.2697542 -29.80661768 7.70313568 -38.5625 8.4375 C-45.32723083 10.1023403 -49.60950314 14.92631126 -53.5625 20.4375 C-57.64015247 27.27743318 -57.70475345 34.8743439 -55.80078125 42.48046875 C-53.24664345 49.96116485 -50.25711545 55.00763954 -43.0625 58.75 C-36.7570584 61.69611046 -31.43891861 62.79154382 -24.5625 61.4375 C-18.99645407 59.33302327 -13.58156988 56.94372987 -9.5625 52.4375 C-5.88180113 53.97393852 -3.57474796 56.21900945 -0.8125 59.0625 C-0.01328125 59.87976563 0.7859375 60.69703125 1.609375 61.5390625 C2.21265625 62.16554688 2.8159375 62.79203125 3.4375 63.4375 C0.15964128 71.020606 -7.78142704 74.25175247 -14.94921875 77.45703125 C-26.12474539 81.64994184 -39.98129689 80.73534064 -50.73046875 75.921875 C-64.11770513 68.90511662 -71.23341197 60.53305318 -76.5625 46.4375 C-79.57985184 31.65247598 -76.79246325 18.95155371 -68.5625 6.4375 C-62.04051823 -2.05001053 -51.55738008 -8.60230492 -40.92578125 -10.3515625 C-26.09723067 -11.67510255 -12.02297515 -9.28139412 0 0 Z " fill="#387C3E" transform="translate(640.5625,692.5625)"/>
<path d="M0 0 C3.75140439 1.41912664 7.21835569 3.1191031 10.73828125 5.0390625 C11.80498047 5.61914062 12.87167969 6.19921875 13.97070312 6.796875 C15.07349609 7.40015625 16.17628906 8.0034375 17.3125 8.625 C18.99569336 9.54152344 18.99569336 9.54152344 20.71289062 10.4765625 C23.47661624 11.98191092 26.23892206 13.48980241 29 15 C28.67 17.64 28.34 20.28 28 23 C27.01 22.96519531 26.02 22.93039062 25 22.89453125 C14.6244654 22.5676964 14.6244654 22.5676964 5 26 C4.12859375 26.47566406 3.2571875 26.95132813 2.359375 27.44140625 C-8.6200697 33.90607929 -15.17705269 42.44387982 -20.3125 53.9375 C-21.81847287 60.64592459 -21.97338832 67.11228164 -18.43359375 73.1875 C-10.42199484 83.31660598 4.44995974 85.09208668 16.4453125 86.62890625 C22.2874601 87.23880078 28.13564937 87.66132929 34 88 C34 88.33 34 88.66 34 89 C24.02960972 89.09265889 14.05932178 89.16374407 4.08858871 89.20724869 C-0.54119316 89.22812826 -5.17068057 89.25645249 -9.80029297 89.30175781 C-14.26771694 89.34520263 -18.73485759 89.36913432 -23.2024765 89.37950897 C-24.90736095 89.38690283 -26.6122298 89.40134132 -28.31699371 89.42292023 C-30.70418364 89.45193694 -33.0902013 89.45595686 -35.47753906 89.45410156 C-36.53597771 89.47567322 -36.53597771 89.47567322 -37.61579895 89.49768066 C-41.01974606 89.4690344 -42.71107537 89.22789483 -45.42002869 87.09115601 C-47.00459966 84.99391216 -47.68383804 83.62948837 -48.23828125 81.0859375 C-48.41512451 80.33328613 -48.59196777 79.58063477 -48.77416992 78.80517578 C-48.95181885 78.00321777 -49.12946777 77.20125977 -49.3125 76.375 C-51.68241289 66.53103991 -55.14233532 57.34282138 -59 48 C-59.66853136 46.33408042 -60.33615341 44.66779193 -61 43 C-59.87464844 42.6596875 -58.74929688 42.319375 -57.58984375 41.96875 C-33.36888005 34.41977238 -13.584948 22.05556264 0 0 Z " fill="#C7CACD" transform="translate(555,538)"/>
<path d="M0 0 C3.80364578 1.51730132 7.27525614 3.37080543 10.796875 5.453125 C11.47427734 5.84435547 12.15167969 6.23558594 12.84960938 6.63867188 C14.19472067 7.41633449 15.53770994 8.19768057 16.87841797 8.98291016 C19.85915595 10.72491897 22.85966532 12.43153357 25.859375 14.140625 C25.58738281 14.80835938 25.31539062 15.47609375 25.03515625 16.1640625 C23.91560469 18.99827609 22.85494923 21.85039717 21.80419922 24.71069336 C19.11475904 32.00824911 16.16966362 39.09934218 12.859375 46.140625 C12.08415342 47.86782878 11.31303116 49.5968809 10.546875 51.328125 C9.99 52.58625 9.433125 53.844375 8.859375 55.140625 C13.479375 55.140625 18.099375 55.140625 22.859375 55.140625 C22.859375 55.470625 22.859375 55.800625 22.859375 56.140625 C10.66381549 56.220055 10.66381549 56.220055 4.97363281 56.17578125 C3.59179699 56.16534885 2.20996106 56.15493217 0.828125 56.14453125 C-0.20106049 56.13620773 -0.20106049 56.13620773 -1.2510376 56.12771606 C-5.26121693 56.1079978 -9.232793 56.22934906 -13.234375 56.48046875 C-24.8770051 57.00017185 -24.8770051 57.00017185 -28.77636719 53.796875 C-31.95833625 50.09422009 -34.00710134 45.87116956 -36.03417969 41.46044922 C-37.89531697 37.55830305 -40.16355593 33.90430563 -42.390625 30.203125 C-43.21696259 28.78693459 -44.04251352 27.37028481 -44.8671875 25.953125 C-47.14284733 22.09001659 -49.58769763 18.36588989 -52.1796875 14.70703125 C-53.140625 13.140625 -53.140625 13.140625 -53.140625 11.140625 C-51.96886719 11.2128125 -50.79710937 11.285 -49.58984375 11.359375 C-48.00261415 11.45329391 -46.41537398 11.54703422 -44.828125 11.640625 C-44.06177734 11.68832031 -43.29542969 11.73601562 -42.50585938 11.78515625 C-40.90251592 11.87829653 -39.29828817 11.95706843 -37.69360352 12.02319336 C-35.9469824 12.10353426 -34.20193638 12.22622465 -32.46069336 12.38500977 C-24.55405975 12.86166822 -19.84447856 10.33826849 -13.328125 6.078125 C-4.18120049 0.18721793 -4.18120049 0.18721793 0 0 Z " fill="#4FB3AA" transform="translate(605.140625,265.859375)"/>
<path d="M0 0 C0.4270696 15.15768576 -0.74650252 28.39016083 -5 43 C-3.7625 43.2784375 -3.7625 43.2784375 -2.5 43.5625 C2.88716556 45.77508585 7.45938433 49.00578018 10.17578125 54.28515625 C11.5932259 58.3090868 12.12001556 61.72444572 12 66 C-34.11307062 64.61708475 -34.11307062 64.61708475 -46 52 C-49.60653383 47.23238833 -50.65975953 42.49541064 -50.37890625 36.5703125 C-48.50721406 23.87367891 -39.84146214 13.63180743 -30 6 C-21.28209484 -0.35646888 -10.61543936 -3.53847979 0 0 Z " fill="#E3E4E4" transform="translate(583,561)"/>
<path d="M0 0 C6.44826882 -0.26319465 12.54127774 0.57469751 18.91796875 1.515625 C21.68455295 1.88654876 24.38501675 2.07027954 27.17578125 2.109375 C28.2131543 2.13269897 28.2131543 2.13269897 29.27148438 2.15649414 C31.19769821 2.185756 33.12437145 2.17803359 35.05078125 2.16796875 C39.64197805 2.69582735 42.70357497 5.33516896 46.32006836 8.04125977 C50.86121709 11.36034843 55.75327165 14.07462221 60.625 16.875 C61.66591797 17.47779785 62.70683594 18.0805957 63.77929688 18.70166016 C72.14712242 23.53729284 80.55286146 28.30438476 89 33 C85.58939417 42.0677185 71.62881083 47.50260877 63.30712891 51.31787109 C51.18468061 56.67683867 38.36803467 60.29928436 25 60 C24.97421875 58.70707031 24.9484375 57.41414062 24.921875 56.08203125 C24.30438403 34.65158376 18.38492289 19.04679272 3 4 C2.01 3.34 1.02 2.68 0 2 C0 1.34 0 0.68 0 0 Z " fill="#FBFBFB" transform="translate(446,519)"/>
<path d="M0 0 C3.45604722 1.27498371 6.60347917 2.85052655 9.80639648 4.66503906 C25.5159313 13.4973027 42.85362584 19.08786274 60.625 21.9375 C72.40700776 23.97805857 84.59077746 28.22718089 92.3125 37.75 C96.44160262 43.73719881 99.36724768 50.72334829 100 58 C100.103125 59.175625 100.20625 60.35125 100.3125 61.5625 C100.06305102 73.44534247 94.41214534 83.62843786 86.1484375 91.83984375 C79.27764142 97.21877375 70.16213983 98.62250579 61.82836914 100.52270508 C59.92109728 100.9532873 59.92109728 100.9532873 58 102 C58 101.34 58 100.68 58 100 C57.19256348 100.16008545 56.38512695 100.3201709 55.55322266 100.48510742 C51.39152845 101.08817277 47.34758924 101.19965813 43.1484375 101.23828125 C42.29432281 101.246353 41.44020813 101.25442474 40.56021118 101.26274109 C38.74979651 101.27653694 36.93935631 101.2872791 35.12890625 101.29516602 C33.31795361 101.30656474 31.50703121 101.32681848 29.69628906 101.35668945 C11.76481574 101.65159332 -5.57041843 99.58975236 -22 92 C-22.928125 91.58234375 -23.85625 91.1646875 -24.8125 90.734375 C-32.77549254 86.79812301 -38.7758696 81.21518768 -45 75 C-45.6703125 74.34128906 -46.340625 73.68257813 -47.03125 73.00390625 C-50.86790239 68.94926224 -53.70001518 64.42523463 -56.5 59.625 C-56.86319336 59.00520264 -57.22638672 58.38540527 -57.60058594 57.74682617 C-58.46805331 56.20061037 -59.24266077 54.6030347 -60 53 C-59.67 52.34 -59.34 51.68 -59 51 C-57.64508116 52.49932062 -56.29111322 53.99950054 -54.9375 55.5 C-54.10734375 56.4178125 -53.2771875 57.335625 -52.421875 58.28125 C-50.45804577 60.48580669 -48.56949287 62.72670168 -46.6875 65 C-31.54097261 82.27541718 -11.40177505 90.86300536 11 94 C13.99759942 94.15050355 16.99119725 94.16387445 19.9921875 94.16796875 C20.85578888 94.17129715 21.71939026 94.17462555 22.60916138 94.17805481 C24.43637564 94.18310418 26.26359908 94.18546375 28.09082031 94.18530273 C30.83154389 94.1874657 33.57184876 94.20557707 36.3125 94.22460938 C61.17911776 94.66862709 61.17911776 94.66862709 83.0625 84.4375 C84.74524969 82.32049232 86.37740563 80.16345916 88 78 C82.06 77.01 76.12 76.02 70 75 C70 73.68 70 72.36 70 71 C77.26 71 84.52 71 92 71 C93.18856181 63.85857864 93.18856181 63.85857864 93 56 C86.07 55.67 79.14 55.34 72 55 C72 53.35 72 51.7 72 50 C78.27 50 84.54 50 91 50 C86.09667221 40.19334442 82.05094834 35.80018188 72 32 C65.41140302 30.04146981 58.6947221 28.5453378 52 27 C32.51224497 22.46532506 12.62955818 16.6467403 0 0 Z " fill="#224E85" transform="translate(439,391)"/>
<path d="M0 0 C5.53393565 4.11907758 11.00203323 8.31458884 16.4375 12.5625 C24.60747949 18.93268881 32.82705679 25.23548621 41.06298828 31.52001953 C44.99831906 34.52682256 48.92282512 37.54751134 52.83984375 40.578125 C55.1105614 42.31835361 57.39076504 44.03481301 59.69140625 45.734375 C60.29694336 46.18659424 60.90248047 46.63881348 61.52636719 47.10473633 C62.69180841 47.97435684 63.86283166 48.83656045 65.04003906 49.69018555 C66.41590192 50.72293673 67.71617369 51.85485215 69 53 C69 53.99 69 54.98 69 56 C63.25 59 63.25 59 61 59 C61 59.66 61 60.32 61 61 C57.59264572 62.7068007 54.17282773 64.38697424 50.75 66.0625 C49.78191406 66.54783203 48.81382812 67.03316406 47.81640625 67.53320312 C46.88183594 67.98759766 45.94726562 68.44199219 44.984375 68.91015625 C44.12553711 69.33433838 43.26669922 69.75852051 42.38183594 70.19555664 C40 71 40 71 37.91479492 70.95141602 C35.06874153 69.53727984 34.05484232 67.54716833 32.37890625 64.8671875 C31.33307373 63.23088379 31.33307373 63.23088379 30.26611328 61.56152344 C29.89754211 60.97866577 29.52897095 60.39580811 29.14923096 59.79528809 C27.20883577 56.76407113 25.17759365 53.79520963 23.15234375 50.8203125 C22.29755764 49.5589819 21.44298775 48.29750475 20.58862305 47.03588867 C20.15528656 46.39670502 19.72195007 45.75752136 19.27548218 45.09896851 C17.90785341 43.08126142 16.54138553 41.06277166 15.17504883 39.04418945 C10.9026754 32.73537371 6.6201095 26.43425039 2.296875 20.16015625 C1.24705444 18.63334229 1.24705444 18.63334229 0.17602539 17.07568359 C-1.12287124 15.18913391 -2.42560616 13.30521957 -3.73266602 11.42431641 C-4.30170654 10.59722168 -4.87074707 9.77012695 -5.45703125 8.91796875 C-5.95178955 8.20406982 -6.44654785 7.4901709 -6.95629883 6.75463867 C-8 5 -8 5 -8 3 C-7.05125 2.690625 -6.1025 2.38125 -5.125 2.0625 C-2.13919592 1.12605258 -2.13919592 1.12605258 0 0 Z " fill="#C2E1BB" transform="translate(630,336)"/>
<path d="M0 0 C0.76924805 -0.02231689 1.53849609 -0.04463379 2.33105469 -0.06762695 C6.19904246 -0.05194134 8.18457427 0.21415809 11.58984375 2.2265625 C13.5625 4.4375 13.5625 4.4375 13.6875 8.25 C12.43419206 14.49333032 8.89507614 18.64400396 3.875 22.375 C0.5625 24.4375 0.5625 24.4375 -1.4375 24.4375 C-1.12980293 26.25082154 -0.81620936 28.06314345 -0.5 29.875 C-0.32597656 30.88433594 -0.15195312 31.89367187 0.02734375 32.93359375 C0.31001097 35.3662438 0.31001097 35.3662438 1.5625 36.4375 C6.81221679 36.78748112 10.40444005 37.01805163 14.5625 33.4375 C16.10244447 31.16545078 17.31124131 28.89367446 18.5625 26.4375 C20.2125 26.7675 21.8625 27.0975 23.5625 27.4375 C23.24846313 31.83401612 22.21353965 34.74921946 19.2109375 38.046875 C14.97997567 41.61612242 10.27407088 43.29486909 4.8125 43.75 C1.5625 43.4375 1.5625 43.4375 -1 42.75 C-3.58018521 42.17972784 -3.58018521 42.17972784 -6.125 43.875 C-11.22461055 46.28047668 -16.29154507 46.45514803 -21.68359375 44.7109375 C-26.09253987 42.66065254 -29.22175121 40.05521739 -32.4375 36.4375 C-31.7775 35.1175 -31.1175 33.7975 -30.4375 32.4375 C-26.55188576 33.01314655 -24.39136643 34.95003354 -21.4375 37.4375 C-19.09812093 38.60718953 -17.66380632 38.57114221 -15.0625 38.5625 C-14.29164063 38.56507813 -13.52078125 38.56765625 -12.7265625 38.5703125 C-10.1222114 38.49038166 -10.1222114 38.49038166 -6.4375 37.4375 C-6.7675 33.8075 -7.0975 30.1775 -7.4375 26.4375 C-8.23414063 26.20675781 -9.03078125 25.97601563 -9.8515625 25.73828125 C-16.9638082 23.54923239 -22.46121398 21.7666433 -26.8125 15.4375 C-27.64692836 12.76732924 -27.98061714 11.22097537 -27.4375 8.4375 C-20.61445706 0.47728324 -9.83707112 0.1721786 0 0 Z " fill="#234F86" transform="translate(484.4375,286.5625)"/>
<path d="M0 0 C0.53625 0.721875 1.0725 1.44375 1.625 2.1875 C2.45 2.97125 3.275 3.755 4.125 4.5625 C9.6348768 10.34787064 11.15107307 14.36770563 11.625 22.1875 C7.995 22.1875 4.365 22.1875 0.625 22.1875 C0.109375 20.66125 -0.40625 19.135 -0.9375 17.5625 C-3.01515014 12.28211843 -5.75752083 9.37822999 -10.375 6.1875 C-9.941875 7.04021484 -9.941875 7.04021484 -9.5 7.91015625 C-9.12875 8.68230469 -8.7575 9.45445312 -8.375 10.25 C-8.00375 11.00410156 -7.6325 11.75820313 -7.25 12.53515625 C-6.375 15.1875 -6.375 15.1875 -6.375 22.1875 C-11.325 21.8575 -16.275 21.5275 -21.375 21.1875 C-21.91125 19.785 -22.4475 18.3825 -23 16.9375 C-25.02466873 12.31280704 -26.94807208 10.50157596 -31.375 8.1875 C-31.045 8.6825 -30.715 9.1775 -30.375 9.6875 C-28.94688352 13.2577912 -29.31257671 16.34846767 -29.375 20.1875 C-32.04335522 19.5901523 -34.70949363 18.98482883 -37.375 18.375 C-38.11878906 18.20935547 -38.86257813 18.04371094 -39.62890625 17.87304688 C-44.73831217 16.69566203 -49.50007025 15.12085282 -54.375 13.1875 C-53.14142459 6.86542603 -49.39995454 3.78978138 -44.375 0.1875 C-34.16576005 -5.67375467 -9.74848926 -7.43963654 0 0 Z " fill="#F9FAFA" transform="translate(454.375,606.8125)"/>
<path d="M0 0 C1.40741455 0.03540894 1.40741455 0.03540894 2.84326172 0.0715332 C4.94316294 0.12729025 7.04279698 0.19378708 9.14208984 0.26904297 C12.35593687 0.36509101 15.56357211 0.40793433 18.77842712 0.42681885 C21.59325246 0.4462229 24.4075058 0.4879921 27.22201538 0.53363037 C28.61143868 0.55281833 30.00098427 0.5646233 31.39053345 0.56890869 C33.35696472 0.57827953 35.32313502 0.62248361 37.2890625 0.66796875 C38.42682129 0.6836792 39.56458008 0.69938965 40.73681641 0.71557617 C43.6875 1.375 43.6875 1.375 46.08740234 3.6965332 C47.6875 6.375 47.6875 6.375 47.6875 9.9375 C46.58780679 13.71769539 45.70691164 14.94219437 42.6875 17.375 C40.29724121 17.87620544 40.29724121 17.87620544 37.61523438 17.87670898 C36.60738892 17.88608994 35.59954346 17.89547089 34.56115723 17.90513611 C33.47878784 17.89390213 32.39641846 17.88266815 31.28125 17.87109375 C30.16439819 17.87254898 29.04754639 17.87400421 27.89685059 17.87550354 C25.53651317 17.8738442 23.17616497 17.86227921 20.81591797 17.84155273 C17.20103034 17.81260834 13.5876098 17.820942 9.97265625 17.83398438 C7.67968036 17.82774671 5.38670912 17.81935556 3.09375 17.80859375 C1.47019592 17.81299721 1.47019592 17.81299721 -0.18615723 17.81748962 C-1.19400269 17.80480545 -2.20184814 17.79212128 -3.24023438 17.77905273 C-4.12529663 17.77364975 -5.01035889 17.76824677 -5.92224121 17.76268005 C-8.80591009 17.294973 -10.18675268 16.34745905 -12.3125 14.375 C-13.0625 12.2890625 -13.0625 12.2890625 -13.3125 10 C-13.415625 9.24976563 -13.51875 8.49953125 -13.625 7.7265625 C-12.53885939 -0.44664559 -6.68355742 -0.28716059 0 0 Z " fill="#1D4A7F" transform="translate(585.3125,320.625)"/>
<path d="M0 0 C5.50036208 0.50627358 9.28534081 2.56169632 13.9375 5.3125 C14.61490234 5.70373047 15.29230469 6.09496094 15.99023438 6.49804688 C17.33534567 7.27570949 18.67833494 8.05705557 20.01904297 8.84228516 C22.99978095 10.58429397 26.00029032 12.29090857 29 14 C28.59201172 15.00160156 28.59201172 15.00160156 28.17578125 16.0234375 C27.05622969 18.85765109 25.99557423 21.70977217 24.94482422 24.57006836 C22.25538404 31.86762411 19.31028862 38.95871718 16 46 C15.22477842 47.72720378 14.45365616 49.4562559 13.6875 51.1875 C13.130625 52.445625 12.57375 53.70375 12 55 C8.7 55 5.4 55 2 55 C2 37.18 2 19.36 2 1 C1.34 0.67 0.68 0.34 0 0 Z " fill="#90CC94" transform="translate(602,266)"/>
<path d="M0 0 C8.00159192 1.95160779 12.7284365 6.9798416 16.95703125 13.77734375 C21.00923705 22.41294337 21.44112879 32.84599056 19.27734375 42.0859375 C17.42383132 47.08366737 15.19249961 50.69013188 11 54 C10.34 54 9.68 54 9 54 C9 52.68 9 51.36 9 50 C8.33613281 49.98582031 7.67226563 49.97164063 6.98828125 49.95703125 C2.58727503 49.71931267 -0.27581574 49.48278951 -4 47 C-6.65414817 43.01877774 -7.22667178 39.71027188 -8 35 C-2.06 35 3.88 35 10 35 C10 33.68 10 32.36 10 31 C4.39 30.67 -1.22 30.34 -7 30 C-5.57391304 20.0173913 -5.57391304 20.0173913 -0.6875 16.1875 C2.40943498 14.81908687 4.64942542 14.76623898 8 15 C8 14.34 8 13.68 8 13 C6.35 12.67 4.7 12.34 3 12 C3 11.34 3 10.68 3 10 C2.01 10 1.02 10 0 10 C0 6.7 0 3.4 0 0 Z " fill="#F7F8F9" transform="translate(700,411)"/>
<path d="M0 0 C5.28364268 0.21658945 10.55407459 0.50189657 15.82910156 0.87304688 C17.55799075 0.97415151 19.29161768 0.99332497 21.0234375 0.984375 C23.69028515 1.14820864 24.91102479 1.30846323 27 3 C29.01784865 7.24555356 30.22430425 11.56417811 31.43945312 16.09179688 C32.21920699 18.7462203 33.31698014 21.19001364 34.5 23.6875 C36.34608532 27.5965124 38.12088541 31.52113188 39.8125 35.5 C40.23144531 36.4796875 40.65039062 37.459375 41.08203125 38.46875 C42 41 42 41 42 44 C36.65695946 44.95458789 31.24547535 45.79160645 26 44 C21.76092955 40.51771905 19.53427472 35.17261454 17.17089844 30.3359375 C15.22907914 26.4620161 12.97370284 22.77918929 10.75 19.0625 C9.92407009 17.64607179 9.0985345 16.22941356 8.2734375 14.8125 C5.99777767 10.94939159 3.55292737 7.22526489 0.9609375 3.56640625 C0 2 0 2 0 0 Z " fill="#308BB4" transform="translate(552,277)"/>
<path d="M0 0 C3.94462056 1.7962753 5.7275178 3.17115165 7.45703125 7.2265625 C6.63203125 8.2165625 5.80703125 9.2065625 4.95703125 10.2265625 C1.87510105 14.32604211 -0.44812832 18.65339711 -2.73046875 23.2265625 C-3.06304687 23.89042969 -3.395625 24.55429688 -3.73828125 25.23828125 C-5.97415816 29.80880875 -7.81753767 34.44022736 -9.54296875 39.2265625 C-17.0274304 36.7747561 -23.03801364 33.65576164 -26.84765625 26.30859375 C-28.74845576 20.61687388 -28.40112482 14.40940835 -26.04296875 8.9140625 C-20.1589696 -0.96046895 -10.8649817 -3.30455665 0 0 Z " fill="#1E4C83" transform="translate(376.54296875,217.7734375)"/>
<path d="M0 0 C-1.62329366 4.73231373 -4.1975168 8.60985545 -6.9375 12.75 C-7.92461657 14.25772255 -8.91159138 15.76553792 -9.8984375 17.2734375 C-10.40729492 18.0478418 -10.91615234 18.82224609 -11.44042969 19.62011719 C-14.00009854 23.5261366 -16.529841 27.45143711 -19.0625 31.375 C-19.96972254 32.77885885 -20.87725104 34.18252005 -21.78515625 35.5859375 C-22.16551025 36.1742334 -22.54586426 36.7625293 -22.93774414 37.36865234 C-23.94762612 38.9195674 -24.97340007 40.4601001 -26 42 C-29.2578125 42.29296875 -29.2578125 42.29296875 -33.125 42.1875 C-35.04699219 42.14689453 -35.04699219 42.14689453 -37.0078125 42.10546875 C-37.99523437 42.07066406 -38.98265625 42.03585937 -40 42 C-38.48889061 37.14854353 -36.84826703 32.53784272 -34.6875 27.9375 C-32.18359395 22.58927772 -30.12261868 17.12890606 -28.14331055 11.57006836 C-26.7715573 7.78613185 -25.46359052 4.2062906 -23 1 C-20.9765625 0.29296875 -20.9765625 0.29296875 -18.625 0.1875 C-17.75359375 0.14109375 -16.8821875 0.0946875 -15.984375 0.046875 C-10.65441693 -0.03684162 -5.33029374 -0.07519223 0 0 Z " fill="#C2E1BD" transform="translate(654,279)"/>
<path d="M0 0 C4.99942059 2.77429968 8.58462853 6.76690837 10.5625 12.14453125 C11.59262753 18.39822581 11.01360603 23.89007969 7.8515625 29.41796875 C5.76641437 32.21080352 3.37593327 34.09839796 0.5625 36.14453125 C-2.00707619 33.77261477 -4.13238683 31.27017796 -6.1875 28.45703125 C-11.78286045 20.90751226 -17.63118544 14.43870735 -25.4375 9.14453125 C-20.8695594 -1.20646716 -10.24718335 -3.59636723 0 0 Z " fill="#1C4A82" transform="translate(550.4375,196.85546875)"/>
<path d="M0 0 C4.54202541 -0.08100045 9.08260304 -0.14050969 13.625 -0.1875 C15.55279297 -0.22520508 15.55279297 -0.22520508 17.51953125 -0.26367188 C19.38544922 -0.27817383 19.38544922 -0.27817383 21.2890625 -0.29296875 C23.00150146 -0.31653442 23.00150146 -0.31653442 24.74853516 -0.34057617 C28.47046733 0.04927932 30.82583569 1.04171076 34 3 C36.66836411 7.00254616 36.8340238 10.29313299 36 15 C33.81840855 17.75569447 32.12822506 19.43588747 29 21 C26.82175039 21.08559118 24.64084745 21.10713412 22.4609375 21.09765625 C21.15898438 21.09443359 19.85703125 21.09121094 18.515625 21.08789062 C17.13541601 21.07953466 15.75520768 21.07106971 14.375 21.0625 C12.98698074 21.05748501 11.59895978 21.0529221 10.2109375 21.04882812 C6.80727327 21.03700985 3.4036313 21.0190739 0 21 C0 14.07 0 7.14 0 0 Z " fill="#CAE7EB" transform="translate(775,734)"/>
<path d="M0 0 C1 1 1 1 1.0625 4.0625 C1.041875 5.031875 1.02125 6.00125 1 7 C0.11957031 6.94199219 -0.76085937 6.88398438 -1.66796875 6.82421875 C-2.82941406 6.77910156 -3.99085938 6.73398437 -5.1875 6.6875 C-6.33605469 6.62949219 -7.48460937 6.57148438 -8.66796875 6.51171875 C-12.76918 6.77399838 -12.76918 6.77399838 -17 12 C-12.05 12.33 -7.1 12.66 -2 13 C-2 14.98 -2 16.96 -2 19 C-7.61 19 -13.22 19 -19 19 C-19 19.99 -19 20.98 -19 22 C-14.05 22 -9.1 22 -4 22 C-4 23.65 -4 25.3 -4 27 C-8.62 27 -13.24 27 -18 27 C-16.58237631 31.79688954 -16.58237631 31.79688954 -14.26171875 33.30859375 C-11.35365884 34.19758616 -8.84755466 34.15491945 -5.8125 34.0625 C-3.87563691 34.00863319 -1.93750336 33.97948181 0 34 C1 35 1 35 1.0625 37.5625 C1.041875 38.366875 1.02125 39.17125 1 40 C-4.46197997 41.82065999 -10.27800025 42.21068049 -15.6171875 39.8359375 C-19.75446591 37.19079229 -23.0613739 34.65270264 -25 30 C-25 29.34 -25 28.68 -25 28 C-26.98 28 -28.96 28 -31 28 C-31 26.35 -31 24.7 -31 23 C-29.68 22.67 -28.36 22.34 -27 22 C-27 21.01 -27 20.02 -27 19 C-28.32 19 -29.64 19 -31 19 C-31.042721 17.33388095 -31.04063832 15.66617115 -31 14 C-30 13 -30 13 -27.4375 12.9375 C-26.633125 12.958125 -25.82875 12.97875 -25 13 C-24.9175 12.443125 -24.835 11.88625 -24.75 11.3125 C-23.1787345 6.46776471 -19.71938692 3.12931172 -15.27734375 0.71875 C-10.38532318 -0.82521533 -5.061834 -0.44749547 0 0 Z " fill="#275789" transform="translate(675,445)"/>
<path d="M0 0 C1.98 0 3.96 0 6 0 C6 2.31 6 4.62 6 7 C8.31 7.33 10.62 7.66 13 8 C13 10.31 13 12.62 13 15 C11.73542969 14.85691406 11.73542969 14.85691406 10.4453125 14.7109375 C9.34960938 14.60007812 8.25390625 14.48921875 7.125 14.375 C6.03445313 14.25898438 4.94390625 14.14296875 3.8203125 14.0234375 C2.88960937 14.01570313 1.95890625 14.00796875 1 14 C0.34 14.66 -0.32 15.32 -1 16 C-1 17.32 -1 18.64 -1 20 C-0.01257813 20.47050781 0.97484375 20.94101562 1.9921875 21.42578125 C3.286666 22.05425994 4.58092553 22.68318981 5.875 23.3125 C6.52597656 23.62123047 7.17695312 23.92996094 7.84765625 24.24804688 C11.19676398 25.88807385 12.89005879 26.83508818 15 30 C15.72022276 34.47208083 15.58211165 37.98669453 13.3125 41.9375 C10.93529308 44.05771158 9.02957572 45.07429631 6 46 C5.67 48.31 5.34 50.62 5 53 C3.02 53 1.04 53 -1 53 C-1 50.69 -1 48.38 -1 46 C-2.3921875 45.814375 -2.3921875 45.814375 -3.8125 45.625 C-7 45 -7 45 -10 43 C-9.505 40.03 -9.505 40.03 -9 37 C-8.45859375 37.16371094 -7.9171875 37.32742188 -7.359375 37.49609375 C-4.59777407 38.08590587 -2.07181861 38.09609308 0.75 38.0625 C2.22726562 38.04896484 2.22726562 38.04896484 3.734375 38.03515625 C4.85585938 38.01775391 4.85585938 38.01775391 6 38 C6.33 36.35 6.66 34.7 7 33 C5.94039062 32.46890625 4.88078125 31.9378125 3.7890625 31.390625 C2.40072692 30.67769592 1.0127232 29.96412033 -0.375 29.25 C-1.07367187 28.90195312 -1.77234375 28.55390625 -2.4921875 28.1953125 C-7.62663912 25.52934724 -7.62663912 25.52934724 -9.44921875 22.9453125 C-10.50434531 19.21869528 -10.95434933 15.76672934 -9.0546875 12.25 C-7.01345577 9.57970943 -5.40757602 8.12680143 -2.1875 7.125 C-1.1046875 7.063125 -1.1046875 7.063125 0 7 C0 4.69 0 2.38 0 0 Z " fill="#285E8A" transform="translate(599,361)"/>
<path d="M0 0 C3.87542277 -0.0811135 7.74913882 -0.1405605 11.625 -0.1875 C13.26662109 -0.22520508 13.26662109 -0.22520508 14.94140625 -0.26367188 C25.28821508 -0.35773377 25.28821508 -0.35773377 30 3 C32.4486325 6.67294875 32.83183438 9.73268965 32 14 C29.46546343 17.21954645 27.88702695 18.70432435 24 20 C22.15389468 20.08239169 20.30494836 20.10743359 18.45703125 20.09765625 C17.38388672 20.09443359 16.31074219 20.09121094 15.20507812 20.08789062 C14.08552734 20.07951172 12.96597656 20.07113281 11.8125 20.0625 C10.68134766 20.05798828 9.55019531 20.05347656 8.38476562 20.04882812 C5.58982124 20.03703511 2.79490401 20.01909957 0 20 C0 13.4 0 6.8 0 0 Z " fill="#CAE6EA" transform="translate(775,699)"/>
<path d="M0 0 C2.87192801 2.67885722 4.33787273 5.43829872 6 9 C5.154375 9.598125 4.30875 10.19625 3.4375 10.8125 C1.30715522 12.87103541 1.00933822 13.76254238 0.890625 16.78125 C1.16150286 19.54705551 1.51602161 22.26384494 2 25 C1.030625 25.59425781 0.06125 26.18851562 -0.9375 26.80078125 C-10.83736699 32.90852112 -20.46872344 39.33317623 -30 46 C-34.9486653 41.65483047 -34.9486653 41.65483047 -35.16015625 38.95703125 C-33.44590447 36.0653136 -31.17586683 34.61703758 -28.4375 32.6875 C-14.60602975 23.30509949 -14.60602975 23.30509949 -6.5 9.46484375 C-5.91194402 6.56591152 -4.92349806 5.34251918 -2.9375 3.1875 C-2.38964844 2.58292969 -1.84179688 1.97835938 -1.27734375 1.35546875 C-0.64505859 0.68451172 -0.64505859 0.68451172 0 0 Z " fill="#C8E7EC" transform="translate(572,312)"/>
<path d="M0 0 C3.32255304 2.07500439 6.23284064 4.46568128 8 8 C8.4161785 14.34672208 7.872389 17.62515228 3.66015625 22.57421875 C1.07678956 24.79287485 -1.32777608 24.92327338 -4.64453125 25.19921875 C-8.69257853 24.85684659 -11.20192251 22.81397566 -14 20 C-16.36798549 17.01427917 -16.41874593 13.79984425 -16.3203125 10.03125 C-15.67779482 5.95674762 -13.42857538 3.12245209 -10.25 0.625 C-6.73153747 -0.3523507 -3.5623791 -0.78133965 0 0 Z " fill="#245086" transform="translate(523,262)"/>
<path d="M0 0 C0.66 0 1.32 0 2 0 C3.55635272 3.73203519 5.10429973 7.46743692 6.64477539 11.20605469 C7.16920757 12.47554557 7.6958668 13.74411895 8.22485352 15.01171875 C8.98788889 16.84127765 9.74207752 18.67451813 10.49609375 20.5078125 C10.95169678 21.60754395 11.4072998 22.70727539 11.87670898 23.84033203 C13 27 13 27 14 33 C5.75 33 -2.5 33 -11 33 C-10.22462204 28.34773225 -9.34443295 24.83963188 -7.71484375 20.5078125 C-7.04291992 18.70957031 -7.04291992 18.70957031 -6.35742188 16.875 C-5.88423277 15.62495526 -5.410924 14.3749558 -4.9375 13.125 C-4.45978804 11.85174939 -3.98256966 10.57831348 -3.50585938 9.3046875 C-2.34207756 6.20126933 -1.17331032 3.09982553 0 0 Z " fill="#C6E3E9" transform="translate(328,704)"/>
<path d="M0 0 C3.07469523 1.70251719 5.40613254 3.81226508 7 7 C7.58118751 11.76383201 7.45088085 15.14488114 5.1875 19.4375 C2.98022199 22.02316852 1.35701204 23.78145499 -2.0859375 24.3359375 C-6.11172399 24.40463693 -8.40531432 24.35428083 -11.9375 22.25 C-15.69933581 18.14617912 -16.49371817 14.72210986 -16.39453125 9.2578125 C-15.72202988 5.40924032 -13.79323112 3.66022012 -11 1 C-7.51556578 -0.74221711 -3.80112955 -0.58675154 0 0 Z " fill="#204D86" transform="translate(428,274)"/>
<path d="M0 0 C2.59959046 0.61569248 4.94610449 1.45214777 7.375 2.5625 C7.375 3.2225 7.375 3.8825 7.375 4.5625 C5.38932292 5.05078125 3.40364583 5.5390625 1.41796875 6.02734375 C-0.28183202 6.47260705 -1.95801954 7.00683985 -3.625 7.5625 C-5.52300405 11.3585081 -6.50449799 15.48067126 -7.625 19.5625 C-7.068125 19.55089844 -6.51125 19.53929687 -5.9375 19.52734375 C-0.72721657 19.46573567 4.2187951 19.81250656 9.375 20.5625 C9.375 21.8825 9.375 23.2025 9.375 24.5625 C3.435 24.5625 -2.505 24.5625 -8.625 24.5625 C-8.026875 26.33625 -7.42875 28.11 -6.8125 29.9375 C-6.47605469 30.93523437 -6.13960937 31.93296875 -5.79296875 32.9609375 C-4.7743425 35.8470709 -4.7743425 35.8470709 -1.625 37.5625 C0.65038323 38.22863335 0.65038323 38.22863335 3.0625 38.6875 C3.87074219 38.85507812 4.67898438 39.02265625 5.51171875 39.1953125 C6.43404297 39.37707031 6.43404297 39.37707031 7.375 39.5625 C7.375 40.5525 7.375 41.5425 7.375 42.5625 C-1.84541807 44.39657954 -1.84541807 44.39657954 -5.80859375 42.5390625 C-9.74563076 39.33863242 -12.66958732 35.61253844 -13.625 30.5625 C-14.51010416 20.64933337 -14.29382253 13.31555146 -7.9765625 5.53125 C-3.66354277 0.78504488 -3.66354277 0.78504488 0 0 Z " fill="#204C80" transform="translate(700.625,421.4375)"/>
<path d="M0 0 C-0.06928711 0.57105469 -0.13857422 1.14210938 -0.20996094 1.73046875 C-2.06054624 18.30012218 -2.01472904 35.26745474 1.34375 51.62109375 C2 55 2 55 2 59 C-0.875 58.375 -0.875 58.375 -4 57 C-5.25 54.5625 -5.25 54.5625 -6 51 C-6.16564453 50.25500244 -6.33128906 49.51000488 -6.50195312 48.74243164 C-8.07188566 41.08321743 -8.30017002 33.67643873 -8.25 25.875 C-8.25773437 24.66457031 -8.26546875 23.45414062 -8.2734375 22.20703125 C-8.25886033 15.50882021 -7.95602242 9.4288382 -6 3 C-2.27272727 0 -2.27272727 0 0 0 Z " fill="#275387" transform="translate(349,482)"/>
<path d="M0 0 C0.33 0 0.66 0 1 0 C1.04898437 1.31613281 1.09796875 2.63226563 1.1484375 3.98828125 C1.61935649 16.48256699 1.61935649 16.48256699 3.59765625 28.80859375 C4.0448332 31.2441886 4.06536906 33.52904953 4 36 C-3.59662309 32.7255935 -8.59499469 28.82772188 -11.875 21.0625 C-13.24634012 16.9645187 -13.22992044 13.2918483 -13 9 C-12.278125 9.309375 -11.55625 9.61875 -10.8125 9.9375 C-8.19692691 10.92560539 -5.74881018 11.5287754 -3 12 C-1.9310589 9.8621178 -1.74311293 8.36166843 -1.5 6 C-1.25688707 3.63833157 -1.0689411 2.1378822 0 0 Z " fill="#D0D6D8" transform="translate(340,502)"/>
<path d="M0 0 C4.71906516 1.35169203 9.40333589 2.77885374 14.0390625 4.39453125 C28.43874433 9.39459918 42.91870258 12.75259097 58 15 C58 15.33 58 15.66 58 16 C37.62072357 16.87970047 17.50074759 15.34984018 -1 6 C-1.042721 4.33388095 -1.04063832 2.66617115 -1 1 C-0.67 0.67 -0.34 0.34 0 0 Z " fill="#275589" transform="translate(388,355)"/>
<path d="M0 0 C-0.11446272 2.56336254 -0.24119501 5.12513445 -0.375 7.6875 C-0.42140625 8.7693457 -0.42140625 8.7693457 -0.46875 9.87304688 C-0.69579692 14.01665311 -1.30785707 17.16172458 -3 21 C-3 22.051875 -3 23.10375 -3 24.1875 C-3 25.115625 -3 26.04375 -3 27 C-3.66 27.66 -4.32 28.32 -5 29 C-9.35745833 28.76446171 -12.06606877 27.18541105 -15 24 C-16.11009754 18.44951229 -14.21083025 14.26900569 -11.63671875 9.4453125 C-9.13979571 5.71482605 -4.85457156 0 0 0 Z " fill="#FAFBFB" transform="translate(342,486)"/>
<path d="M0 0 C0.99 0.66 1.98 1.32 3 2 C3 2.99 3 3.98 3 5 C-3.89287956 8.12105337 -10.82165017 10.70019191 -18.0625 12.875 C-18.80040771 13.1021167 -19.53831543 13.3292334 -20.29858398 13.56323242 C-25.63582236 15.12139255 -25.63582236 15.12139255 -29 14 C-28.33097656 13.74347656 -27.66195313 13.48695313 -26.97265625 13.22265625 C-17.60820158 9.48944412 -8.84675298 4.81120808 0 0 Z " fill="#225382" transform="translate(535,351)"/>
<path d="M0 0 C4.64748457 1.32785274 7.59450154 3.85355713 10 8 C10.8125 11.875 10.8125 11.875 11 15 C9.02 15 7.04 15 5 15 C4.731875 14.01 4.46375 13.02 4.1875 12 C3.023161 7.90387216 1.53288422 3.97156367 0 0 Z " fill="#285285" transform="translate(422,614)"/>
<path d="M0 0 C5.03689391 1.86551626 8.01386784 5.98077701 10.3125 10.6875 C11 13 11 13 11 16 C9.02 16 7.04 16 5 16 C4.35228492 14.08396843 3.70690052 12.16714887 3.0625 10.25 C2.70285156 9.18265625 2.34320313 8.1153125 1.97265625 7.015625 C1.22017881 4.68264275 0.55022756 2.38625005 0 0 Z " fill="#2B568D" transform="translate(444,613)"/>
<path d="M0 0 C4.55555556 0.55555556 4.55555556 0.55555556 6 2 C6.125 5 6.125 5 6 8 C5 9 5 9 2.0625 9.25 C1.051875 9.1675 0.04125 9.085 -1 9 C-3 6 -3 6 -2.75 3.9375 C-2 2 -2 2 0 0 Z " fill="#EAEEF1" transform="translate(520,265)"/>
<path d="M0 0 C4.55555556 0.55555556 4.55555556 0.55555556 6 2 C6.1875 4.4375 6.1875 4.4375 6 7 C5.34 7.66 4.68 8.32 4 9 C-0.55555556 8.44444444 -0.55555556 8.44444444 -2 7 C-2.1875 4.5625 -2.1875 4.5625 -2 2 C-1.34 1.34 -0.68 0.68 0 0 Z " fill="#F3F5F6" transform="translate(425,277)"/>
<path d="M0 0 C2.33944736 0.28730055 4.6739143 0.61936779 7 1 C7 1.66 7 2.32 7 3 C-6.53 3 -20.06 3 -34 3 C-34 2.67 -34 2.34 -34 2 C-32.50835327 1.96241577 -32.50835327 1.96241577 -30.98657227 1.92407227 C-27.30951253 1.83015118 -23.6326485 1.72989381 -19.95581055 1.62768555 C-18.362107 1.58427854 -16.7683552 1.54260781 -15.17456055 1.50268555 C-12.88836092 1.44512193 -10.60240551 1.38138851 -8.31640625 1.31640625 C-7.2413961 1.29133751 -7.2413961 1.29133751 -6.14466858 1.26576233 C-2.78472618 1.44981346 -2.78472618 1.44981346 0 0 Z " fill="#EFF0EF" transform="translate(511,466)"/>
<path d="M0 0 C4.65565942 1.60038292 9.32034567 3.68143325 13 7 C14 10.8125 14 10.8125 14 14 C9.10565787 9.90473413 4.29279666 5.73642915 0 1 C0 0.67 0 0.34 0 0 Z " fill="#1F4D80" transform="translate(436,515)"/>
<path d="M0 0 C5.61 0 11.22 0 17 0 C16.67 0.99 16.34 1.98 16 3 C10.72 3 5.44 3 0 3 C0 2.01 0 1.02 0 0 Z " fill="#5CBA9F" transform="translate(656,464)"/>
<path d="M0 0 C0.99 0.66 1.98 1.32 3 2 C3 2.99 3 3.98 3 5 C1.76103398 5.58640382 0.50811342 6.14338891 -0.75 6.6875 C-1.44609375 7.00074219 -2.1421875 7.31398438 -2.859375 7.63671875 C-3.56578125 7.75660156 -4.2721875 7.87648438 -5 8 C-6.32 7.01 -7.64 6.02 -9 5 C-6.03 3.35 -3.06 1.7 0 0 Z " fill="#255988" transform="translate(535,351)"/>
<path d="M0 0 C2.6425382 0.03842617 5.24024435 0.14525029 7.875 0.3125 C8.60847656 0.34794922 9.34195312 0.38339844 10.09765625 0.41992188 C13.8401109 0.64828659 15.82122987 0.88081991 19 3 C16.41638482 3.05407567 13.83390745 3.093707 11.25 3.125 C10.52039063 3.14175781 9.79078125 3.15851563 9.0390625 3.17578125 C5.1955376 3.21072239 2.25393228 3.17499684 -1 1 C-0.67 0.67 -0.34 0.34 0 0 Z " fill="#204D81" transform="translate(427,368)"/>
<path d="M0 0 C2.97 0.33 5.94 0.66 9 1 C6.75 3.5 6.75 3.5 4 6 C2.68 6 1.36 6 0 6 C0 4.02 0 2.04 0 0 Z " fill="#E4E6E5" transform="translate(700,465)"/>
<path d="M0 0 C2.31 0 4.62 0 7 0 C7 1.32 7 2.64 7 4 C4.36 4 1.72 4 -1 4 C-0.67 2.68 -0.34 1.36 0 0 Z " fill="#2A568D" transform="translate(703,442)"/>
<path d="M0 0 C2.64 0 5.28 0 8 0 C7.67 0.99 7.34 1.98 7 3 C4.69 3 2.38 3 0 3 C0 2.01 0 1.02 0 0 Z " fill="#64C0A7" transform="translate(665,464)"/>
<path d="M0 0 C-2.52480693 2.52480693 -4.13823034 2.55738633 -7.625 3.125 C-8.62789063 3.29257812 -9.63078125 3.46015625 -10.6640625 3.6328125 C-11.43492187 3.75398438 -12.20578125 3.87515625 -13 4 C-12 2 -12 2 -10.0390625 1.11328125 C-9.24242187 0.84902344 -8.44578125 0.58476562 -7.625 0.3125 C-6.83351563 0.04050781 -6.04203125 -0.23148437 -5.2265625 -0.51171875 C-3 -1 -3 -1 0 0 Z " fill="#4B749C" transform="translate(519,362)"/>
<path d="M0 0 C2.9719385 1.12451727 5.33440687 2.22293791 8 4 C7.67 5.32 7.34 6.64 7 8 C5.83035398 6.8572081 4.66435444 5.71068285 3.5 4.5625 C2.8503125 3.92441406 2.200625 3.28632813 1.53125 2.62890625 C0 1 0 1 0 0 Z " fill="#2E5E8F" transform="translate(439,391)"/>
<path d="M0 0 C3.23356015 1.21258505 4.00856305 2.01284458 6 5 C5.01 5.99 4.02 6.98 3 8 C2.731875 7.21625 2.46375 6.4325 2.1875 5.625 C1.15185568 2.71885077 1.15185568 2.71885077 -2 1 C-1.34 0.67 -0.68 0.34 0 0 Z " fill="#315E92" transform="translate(428,275)"/>
<path d="M0 0 C4.75 1.875 4.75 1.875 7 3 C6.67 4.32 6.34 5.64 6 7 C4.02 4.69 2.04 2.38 0 0 Z " fill="#285685" transform="translate(436,515)"/>
<path d="M0 0 C0 3 0 3 -2 5.1875 C-2.66 5.785625 -3.32 6.38375 -4 7 C-4.66 6.67 -5.32 6.34 -6 6 C-2.25 1.125 -2.25 1.125 0 0 Z " fill="#2C5B8F" transform="translate(358,219)"/>
</svg>
